<?xml version="1.0" encoding="UTF-8"?>
<svg width="13px" height="15px" viewBox="0 0 13 15" version="1.1" xmlns="http://www.w3.org/2000/svg" xmlns:xlink="http://www.w3.org/1999/xlink">
    <!-- Generator: Sketch 43.1 (39012) - http://www.bohemiancoding.com/sketch -->
    <title>files board icon</title>
    <desc>Created with Sketch.</desc>
    <defs></defs>
    <g id="Page-1" stroke="none" stroke-width="1" fill="none" fill-rule="evenodd">
        <g id="soas--s3_1" transform="translate(-26.000000, -171.000000)" fill="#7F8FA4">
            <g id="Group-9" transform="translate(0.000000, 93.000000)">
                <g id="Group-8" transform="translate(26.000000, 78.000000)">
                    <g id="files-board-icon">
                        <path d="M0.962729221,0.651859862 C0.785907954,0.651859862 0.641819481,0.798202402 0.641819481,0.977789794 L0.641819481,14.014987 C0.641819481,14.1945744 0.785907954,14.340917 0.962729221,14.340917 L11.2318409,14.340917 C11.4086622,14.340917 11.5527507,14.1945744 11.5527507,14.014987 L11.5527507,4.3720241 L7.88988688,0.651859862 L0.962729221,0.651859862 Z M11.2318409,14.9927768 L0.962729221,14.9927768 C0.431944511,14.9927768 0,14.5540751 0,14.014987 L0,0.977789794 C0,0.438701687 0.431944511,0 0.962729221,0 L8.02274351,0 C8.10778459,0 8.18961658,0.0342226428 8.2496267,0.0954974698 L12.1005436,4.00665664 C12.1608746,4.06760554 12.1945701,4.15071767 12.1945701,4.23708911 L12.1945701,14.014987 C12.1945701,14.5540751 11.7626256,14.9927768 11.2318409,14.9927768 L11.2318409,14.9927768 Z" id="Fill-1"></path>
                        <path d="M11.8736604,4.56301904 L8.02274351,4.56301904 C7.84560133,4.56301904 7.70183377,4.41700243 7.70183377,4.23708911 L7.70183377,0.651859862 L8.34365325,0.651859862 L8.34365325,3.91115917 L11.8736604,3.91115917 L11.8736604,4.56301904 Z" id="Fill-3"></path>
                        <path d="M6.09728507,5.54080883 L2.24636818,5.54080883 C2.06922601,5.54080883 1.92545844,5.39479222 1.92545844,5.2148789 C1.92545844,5.03496558 2.06922601,4.88894897 2.24636818,4.88894897 L6.09728507,4.88894897 C6.27442724,4.88894897 6.41819481,5.03496558 6.41819481,5.2148789 C6.41819481,5.39479222 6.27442724,5.54080883 6.09728507,5.54080883" id="Fill-5"></path>
                        <path d="M9.94820195,7.49638842 L2.24636818,7.49638842 C2.06922601,7.49638842 1.92545844,7.35037181 1.92545844,7.17045849 C1.92545844,6.99054516 2.06922601,6.84452856 2.24636818,6.84452856 L9.94820195,6.84452856 C10.1253441,6.84452856 10.2691117,6.99054516 10.2691117,7.17045849 C10.2691117,7.35037181 10.1253441,7.49638842 9.94820195,7.49638842" id="Fill-7"></path>
                        <path d="M9.94820195,9.45196801 L2.24636818,9.45196801 C2.06922601,9.45196801 1.92545844,9.3059514 1.92545844,9.12603807 C1.92545844,8.94612475 2.06922601,8.80010814 2.24636818,8.80010814 L9.94820195,8.80010814 C10.1253441,8.80010814 10.2691117,8.94612475 10.2691117,9.12603807 C10.2691117,9.3059514 10.1253441,9.45196801 9.94820195,9.45196801" id="Fill-9"></path>
                        <path d="M9.94820195,11.4075476 L2.24636818,11.4075476 C2.06922601,11.4075476 1.92545844,11.261531 1.92545844,11.0816177 C1.92545844,10.9017043 2.06922601,10.7556877 2.24636818,10.7556877 L9.94820195,10.7556877 C10.1253441,10.7556877 10.2691117,10.9017043 10.2691117,11.0816177 C10.2691117,11.261531 10.1253441,11.4075476 9.94820195,11.4075476" id="Fill-11"></path>
                    </g>
                </g>
            </g>
        </g>
    </g>
</svg>