<?xml version="1.0" encoding="UTF-8"?>
<svg width="15px" height="14px" viewBox="0 0 15 14" version="1.1" xmlns="http://www.w3.org/2000/svg" xmlns:xlink="http://www.w3.org/1999/xlink">
    <!-- Generator: Sketch 43.1 (39012) - http://www.bohemiancoding.com/sketch -->
    <title>sessions icon</title>
    <desc>Created with Sketch.</desc>
    <defs></defs>
    <g id="Page-1" stroke="none" stroke-width="1" fill="none" fill-rule="evenodd">
        <g id="soas--s3_1" transform="translate(-25.000000, -250.000000)" fill="#7F8FA4">
            <g id="Group-9" transform="translate(0.000000, 93.000000)">
                <g id="Group-6" transform="translate(25.000000, 157.000000)">
                    <g id="sessions-icon">
                        <path d="M11.5841215,12.3939902 C11.4330742,12.3939902 11.297619,12.2897877 11.2661102,12.1382786 C11.2303786,11.9653536 11.3434204,11.796584 11.5191549,11.7614236 C12.9893481,11.4651178 13.7319158,10.6960651 14.2224133,10.1341389 C13.8777657,9.58659637 13.1007657,8.69799851 12.0064041,8.32689704 C10.7444288,7.89921937 10.4735182,7.73620321 10.4735182,6.97578081 C10.4735182,6.83386086 10.5683694,6.70920145 10.7064233,6.66924651 C10.9123673,6.60947392 11.16931,6.60787573 11.4668569,6.60627753 C11.9099288,6.60372041 12.46117,6.60052402 12.6414522,6.36431042 C12.7941236,6.1635768 12.7301315,6.02005866 12.4114706,5.53964047 C12.3335107,5.42201313 12.251328,5.29735372 12.1723936,5.1637444 C11.5581349,4.12171958 11.5120086,3.66047976 11.4584112,3.12636213 L11.4480166,3.02152037 C11.3141855,1.74264267 10.6206675,1.04902492 9.38695259,0.959845499 C8.30850778,1.0375179 7.64032676,1.58122472 7.400925,2.57562325 C7.35967124,2.74758931 7.18426154,2.85338999 7.00982634,2.81279577 C6.83539114,2.77220155 6.72722182,2.59991585 6.76880042,2.42826943 C7.07414323,1.1596202 7.99634348,0.410704813 9.3651888,0.32024683 C9.37948144,0.319607551 9.39409891,0.319607551 9.40871639,0.32024683 C10.9737607,0.424129672 11.9274697,1.35971453 12.0941089,2.95599427 L12.1051533,3.06371279 C12.1548527,3.56139151 12.1909091,3.92098596 12.7343543,4.84282633 C12.8071169,4.96652682 12.8834526,5.0812774 12.9555655,5.19027448 C13.2592841,5.6483179 13.6036069,6.16741248 13.1608598,6.74755819 C12.7873021,7.23788521 12.0574028,7.24204052 11.4707548,7.24555656 C11.3677829,7.24619584 11.2635115,7.24651548 11.16931,7.25035115 C11.2553907,7.38428011 11.5038878,7.48081124 12.2178702,7.72277835 C13.6373895,8.20351619 14.5755065,9.3951323 14.9061863,10.0235436 C14.9666052,10.1389334 14.9503635,10.2792552 14.8649325,10.3777042 L14.8155579,10.4349196 C14.3013477,11.0300884 13.4405408,12.0270441 11.6497377,12.3872778 C11.6276491,12.3917527 11.6055605,12.3939902 11.5841215,12.3939902" id="Fill-6"></path>
                        <path d="M5.89461045,13.8726426 C2.63848671,13.8726426 0.352313629,13.3963797 0.25648796,13.3759228 C0.101217893,13.3433196 -0.0069514214,13.204596 0.000194899666,13.0482923 C0.125580351,10.4601712 1.76338721,9.65691706 2.98475844,9.27750496 C3.89558955,8.99462398 4.38706154,8.53018777 4.39193403,8.52539318 C4.51991814,8.40201232 4.72521246,8.40393016 4.85092274,8.52986813 C4.97598336,8.65548646 4.9753337,8.85685935 4.84799925,8.98055985 C4.82428645,9.00389353 4.25030694,9.55463241 3.18030778,9.88705751 C2.03949507,10.2415377 0.861651421,10.8683508 0.669675251,12.8031288 C1.37196371,12.9281079 3.35019532,13.2333636 5.89461045,13.2333636 C8.43902559,13.2333636 10.4172572,12.9281079 11.1195457,12.8031288 C10.9272446,10.8683508 9.74972584,10.2415377 8.60891313,9.88737715 C7.53858913,9.55463241 6.96493445,9.00389353 6.94089682,8.98055985 C6.81356237,8.85653971 6.81258788,8.65388826 6.93862299,8.52826993 C7.06433328,8.40329088 7.26962759,8.40233196 7.39728687,8.52539318 C7.41060502,8.53817876 7.90110251,8.99686146 8.80446246,9.27782459 C10.0255089,9.65691706 11.6636406,10.4598515 11.789026,13.0482923 C11.7961723,13.204596 11.688003,13.3433196 11.5327329,13.3759228 C11.4369073,13.3963797 9.15040936,13.8726426 5.89461045,13.8726426" id="Fill-3"></path>
                        <path d="M3.46391927,6.48439898 C3.47236492,6.48951321 3.48146024,6.49494709 3.49055556,6.50038096 C3.61366718,6.57581588 3.72053717,6.64102234 3.7604916,6.77782806 C3.88685155,7.21061996 4.74311074,8.82447987 5.89464293,8.82447987 C7.04617513,8.82447987 7.90210949,7.21061996 8.02879427,6.77750842 C8.0687487,6.64102234 8.17529385,6.57581588 8.29873031,6.50038096 C8.30782563,6.49494709 8.31659611,6.48951321 8.32504176,6.48439898 C8.63298324,5.92694767 8.57061534,5.69936433 8.54300456,5.64150958 C8.51182061,5.57566384 8.44782855,5.55456763 8.44717889,5.55456763 C8.2867115,5.52548044 8.17302003,5.38356049 8.18179051,5.22310146 C8.18211534,5.21638903 8.21459862,4.57295468 8.05608023,3.9841787 C8.04081309,3.93111854 7.6435426,2.61356446 5.89464293,2.61356446 C4.12852713,2.61356446 3.73612914,3.97171276 3.73255598,3.98545726 C3.57436242,4.57295468 3.60684569,5.21638903 3.60717053,5.22310146 C3.61594101,5.38356049 3.50224954,5.52548044 3.34178215,5.55456763 C3.33885865,5.55584619 3.27421693,5.57566384 3.24303298,5.64790237 C3.21769603,5.70671604 3.16182479,5.93685649 3.46391927,6.48439898 M5.89464293,9.4637589 C4.33284695,9.4637589 3.3879084,7.63637979 3.17124494,7.05783227 C3.16344895,7.05303768 3.15532814,7.04856273 3.14785698,7.04344849 C3.05008232,6.9836759 2.97926877,6.94084421 2.93021902,6.8558201 C2.5751768,6.23731764 2.48324912,5.73740144 2.65735949,5.37109455 C2.73499452,5.20775876 2.84868599,5.102917 2.95458148,5.03611234 C2.95620564,4.76537767 2.9795936,4.28623804 3.10497906,3.82052327 C3.28006392,3.1809246 4.08792304,1.97428543 5.89464293,1.97428543 C7.70136283,1.97428543 8.50922195,3.1809246 8.68365715,3.81924471 C8.80969227,4.2859184 8.83308023,4.76505803 8.83470439,5.03611234 C8.94027504,5.102917 9.05396651,5.20775876 9.13160155,5.37109455 C9.30571191,5.73740144 9.21410907,6.23731764 8.85874202,6.85550046 C8.8100171,6.94084421 8.73920355,6.9836759 8.64110406,7.04344849 C8.6336329,7.04856273 8.62583691,7.05303768 8.61804093,7.05783227 C8.4007278,7.63669943 7.45611409,9.4637589 5.89464293,9.4637589" id="Fill-1"></path>
                    </g>
                </g>
            </g>
        </g>
    </g>
</svg>