<?xml version="1.0" encoding="UTF-8"?>
<svg width="14px" height="10px" viewBox="0 0 14 10" version="1.1" xmlns="http://www.w3.org/2000/svg" xmlns:xlink="http://www.w3.org/1999/xlink">
    <!-- Generator: Sketch 43.1 (39012) - http://www.bohemiancoding.com/sketch -->
    <title>credit card</title>
    <desc>Created with Sketch.</desc>
    <defs></defs>
    <g id="Page-1" stroke="none" stroke-width="1" fill="none" fill-rule="evenodd">
        <g id="soas--s3_1" transform="translate(-25.000000, -215.000000)" fill-rule="nonzero" fill="#7F8FA4">
            <g id="Group-9" transform="translate(0.000000, 93.000000)">
                <g id="Group-7" transform="translate(25.000000, 119.000000)">
                    <g id="credit-card" transform="translate(0.000000, 3.000000)">
                        <path d="M12.5416667,9.33333333 L1.45833333,9.33333333 C0.6545,9.33333333 0,8.67883333 0,7.875 L0,1.45833333 C0,0.6545 0.6545,0 1.45833333,0 L12.5416667,0 C13.3455,0 14,0.6545 14,1.45833333 L14,7.875 C14,8.67883333 13.3455,9.33333333 12.5416667,9.33333333 Z M1.45833333,0.583333333 C0.975916667,0.583333333 0.583333333,0.975916667 0.583333333,1.45833333 L0.583333333,7.875 C0.583333333,8.35741667 0.975916667,8.75 1.45833333,8.75 L12.5416667,8.75 C13.0240833,8.75 13.4166667,8.35741667 13.4166667,7.875 L13.4166667,1.45833333 C13.4166667,0.975916667 13.0240833,0.583333333 12.5416667,0.583333333 L1.45833333,0.583333333 Z" id="Shape"></path>
                        <path d="M13.7083333,4.08333333 L0.291666667,4.08333333 C0.130666667,4.08333333 0,3.95266667 0,3.79166667 L0,2.04166667 C0,1.88066667 0.130666667,1.75 0.291666667,1.75 L13.7083333,1.75 C13.8693333,1.75 14,1.88066667 14,2.04166667 L14,3.79166667 C14,3.95266667 13.8693333,4.08333333 13.7083333,4.08333333 Z M0.583333333,3.5 L13.4166667,3.5 L13.4166667,2.33333333 L0.583333333,2.33333333 L0.583333333,3.5 Z" id="Shape"></path>
                        <path d="M4.375,6.41666667 L2.04166667,6.41666667 C1.88066667,6.41666667 1.75,6.286 1.75,6.125 C1.75,5.964 1.88066667,5.83333333 2.04166667,5.83333333 L4.375,5.83333333 C4.536,5.83333333 4.66666667,5.964 4.66666667,6.125 C4.66666667,6.286 4.536,6.41666667 4.375,6.41666667 Z" id="Shape"></path>
                        <path d="M6.125,7.58333333 L2.04166667,7.58333333 C1.88066667,7.58333333 1.75,7.45266667 1.75,7.29166667 C1.75,7.13066667 1.88066667,7 2.04166667,7 L6.125,7 C6.286,7 6.41666667,7.13066667 6.41666667,7.29166667 C6.41666667,7.45266667 6.286,7.58333333 6.125,7.58333333 Z" id="Shape"></path>
                    </g>
                </g>
            </g>
        </g>
    </g>
</svg>