<?xml version="1.0" encoding="UTF-8"?>
<svg width="16px" height="12px" viewBox="0 0 16 12" version="1.1" xmlns="http://www.w3.org/2000/svg" xmlns:xlink="http://www.w3.org/1999/xlink">
    <!-- Generator: Sketch 39 (31667) - http://www.bohemiancoding.com/sketch -->
    <title>чек</title>
    <desc>Created with Sketch.</desc>
    <defs>
        <polygon id="path-1" points="15.9742943 0.00586153846 0.00288288288 0.00586153846 0.00288288288 11.9539385 15.9742943 11.9539385 15.9742943 0.00586153846"></polygon>
    </defs>
    <g id="Page-1" stroke="none" stroke-width="1" fill="none" fill-rule="evenodd">
        <g id="Haver/-errors-(утвержден)-" transform="translate(-946.000000, -454.000000)">
            <g id="Card-1" transform="translate(430.000000, 187.000000)">
                <g id="username" transform="translate(46.000000, 232.000000)">
                    <g id="чек" transform="translate(470.000000, 35.000000)">
                        <mask id="mask-2" fill="white">
                            <use xlink:href="#path-1"></use>
                        </mask>
                        <g id="Clip-2"></g>
                        <path d="M15.8162643,1.86789231 L14.0358438,0.157661538 C13.8250571,-0.0448153846 13.4834835,-0.0448153846 13.2726967,0.157661538 L5.85604805,7.28192308 L2.7015976,4.25201538 C2.49081081,4.04953846 2.14918919,4.04953846 1.93845045,4.25201538 L0.15803003,5.9622 C-0.0527567568,6.16467692 -0.0527567568,6.49283077 0.15803003,6.69526154 L5.4744985,11.8019538 C5.57977177,11.9032615 5.71790991,11.9539385 5.85604805,11.9539385 C5.99418619,11.9539385 6.13232432,11.9032615 6.2375976,11.8019538 L15.8162643,2.60090769 C15.9174054,2.50375385 15.9742943,2.3718 15.9742943,2.2344 C15.9742943,2.097 15.9174054,1.96504615 15.8162643,1.86789231 L15.8162643,1.86789231 Z" id="Fill-1" fill="#5BEA94" mask="url(#mask-2)"></path>
                    </g>
                </g>
            </g>
        </g>
    </g>
</svg>