<?xml version="1.0" encoding="UTF-8"?>
<svg width="22px" height="20px" viewBox="0 0 22 20" version="1.1" xmlns="http://www.w3.org/2000/svg" xmlns:xlink="http://www.w3.org/1999/xlink">
    <!-- Generator: Sketch 39 (31667) - http://www.bohemiancoding.com/sketch -->
    <title>danger-sign</title>
    <desc>Created with Sketch.</desc>
    <defs></defs>
    <g id="Page-1" stroke="none" stroke-width="1" fill="none" fill-rule="evenodd">
        <g id="10---Invoices-1" transform="translate(-382.000000, -499.000000)" fill="#FE3824">
            <g id="danger-sign" transform="translate(382.000000, 499.000000)">
                <g id="Group">
                    <path d="M11.5993132,0.366403774 C11.4699283,0.142958491 11.2347358,0.0135735849 10.9877547,0.0135735849 C10.7407736,0.0135735849 10.5055396,0.142958491 10.3761962,0.366403774 L0.0970490566,18.1607925 C-0.0323358491,18.3842377 -0.0323358491,18.6430075 0.0970490566,18.8664528 C0.226433962,19.0898981 0.461626415,19.219283 0.708607547,19.219283 L21.2668604,19.219283 L21.2668604,19.219283 C21.6549736,19.219283 21.9725208,18.9017358 21.9725208,18.5136226 C21.9725208,18.3607434 21.9254906,18.2313585 21.8549245,18.1137623 L11.5993132,0.366403774 Z M1.93176604,17.8079623 L10.9877132,2.13055472 L20.0437019,17.8079623 L1.93176604,17.8079623 Z" id="Shape"></path>
                    <path d="M10.2703057,6.98786415 L10.2703057,12.3979132 C10.2703057,12.7860264 10.5878528,13.1035736 10.975966,13.1035736 C11.3640792,13.1035736 11.6816264,12.7860264 11.6816264,12.3979132 L11.6816264,6.98786415 C11.6816264,6.59975094 11.3640792,6.28220377 10.975966,6.28220377 C10.5878528,6.28220377 10.2703057,6.59975094 10.2703057,6.98786415 Z" id="Shape"></path>
                    <path d="M10.975966,14.0444679 C10.5878528,14.0444679 10.2703057,14.3620151 10.2703057,14.7501283 L10.2703057,15.2205547 C10.2703057,15.6086679 10.5878528,15.9262151 10.975966,15.9262151 C11.3640792,15.9262151 11.6816264,15.6086679 11.6816264,15.2205547 L11.6816264,14.7501283 C11.6816264,14.3620151 11.3640792,14.0444679 10.975966,14.0444679 Z" id="Shape"></path>
                </g>
            </g>
        </g>
    </g>
</svg>