<?xml version="1.0" encoding="UTF-8"?>
<svg width="53px" height="35px" viewBox="0 0 53 35" version="1.1" xmlns="http://www.w3.org/2000/svg" xmlns:xlink="http://www.w3.org/1999/xlink">
    <!-- Generator: Sketch 43.1 (39012) - http://www.bohemiancoding.com/sketch -->
    <title>mail.7</title>
    <desc>Created with Sketch.</desc>
    <defs></defs>
    <g id="Page-1" stroke="none" stroke-width="1" fill="none" fill-rule="evenodd">
        <g id="Forgot-password?-Copy-3" transform="translate(-694.000000, -431.000000)" fill-rule="nonzero" fill="#50D166">
            <g id="mail.7" transform="translate(694.000000, 431.000000)">
                <g id="Layer_1">
                    <g id="Group">
                        <path d="M48.5796512,0 L4.41858139,0 C1.98129189,0 -1.6479873e-15,1.9635 -1.6479873e-15,4.375 L-1.6479873e-15,30.625 C-1.6479873e-15,33.0365 1.98129189,35 4.41858139,35 L48.5814186,35 C51.0187081,35 53,33.0365 53,30.625 L53,4.375 C52.9982326,1.9635 51.0187081,0 48.5796512,0 Z M50.9982492,30.4166667 C50.9982492,31.8409444 49.8199521,33 48.3720299,33 L4.62621932,33 C3.17829707,33 2,31.8409444 2,30.4166667 L2,4.58333333 C2,3.15905556 3.17829707,2 4.62621932,2 L48.3737807,2 C49.8217029,2 51,3.15905556 51,4.58333333 L50.9982492,30.4166667 L50.9982492,30.4166667 Z" id="Shape"></path>
                        <path d="M46.8587693,5.39851332 C46.5962693,4.99239428 46.0502693,4.87861093 45.6495193,5.14118789 L28.1320193,16.5317765 C26.7162694,17.5015608 24.4097694,17.5015608 22.9940194,16.5317765 L6.36901946,5.15344148 C5.97526946,4.88211195 5.42751946,4.9818912 5.15101946,5.38100818 C4.88151946,5.78012517 4.98126946,6.32453474 5.38201946,6.59761478 L22.0070194,17.9759498 C23.0062694,18.6586499 24.2890194,19 25.5682694,19 C26.8422694,19 28.1162693,18.662151 29.1032693,17.9882034 L46.6032693,6.60986837 C47.0075193,6.3455409 47.1212693,5.80288184 46.8587693,5.39851332 Z" id="Shape"></path>
                        <path d="M17.5558531,17.2069109 L5.30672819,27.4915816 C4.93925445,27.8001217 4.89550757,28.3417811 5.21048507,28.7000304 C5.38722244,28.8988674 5.63045506,29 5.87543756,29 C6.07667318,29 6.27965868,28.9314355 6.44414693,28.7925925 L18.6932718,18.5079217 C19.0607456,18.1993816 19.1044924,17.6577223 18.7895149,17.2994729 C18.4727876,16.9395094 17.9215769,16.8983708 17.5558531,17.2069109 Z" id="Shape"></path>
                        <path d="M35.4437594,17.2069109 C35.0797027,16.8983708 34.5266166,16.9395094 34.2098172,17.2994729 C33.8965184,17.6594364 33.938525,18.1993816 34.3060822,18.5079217 L46.5579908,28.7925925 C46.7207662,28.9314355 46.9255481,29 47.1250792,29 C47.3718676,29 47.6151555,28.8988674 47.7901828,28.7000304 C48.1034816,28.340067 48.061475,27.8001217 47.6939178,27.4915816 L35.4437594,17.2069109 Z" id="Shape"></path>
                    </g>
                </g>
            </g>
        </g>
    </g>
</svg>