<?xml version="1.0" encoding="UTF-8"?>
<svg width="48px" height="48px" viewBox="0 0 48 48" version="1.1" xmlns="http://www.w3.org/2000/svg" xmlns:xlink="http://www.w3.org/1999/xlink">
    <!-- Generator: Sketch 43.1 (39012) - http://www.bohemiancoding.com/sketch -->
    <title>MasterCard</title>
    <desc>Created with Sketch.</desc>
    <defs></defs>
    <g id="Page-1" stroke="none" stroke-width="1" fill="none" fill-rule="evenodd">
        <g id="TopUp-by-Card-Passive" transform="translate(-1307.000000, -322.000000)">
            <g id="TopUp-Right" transform="translate(939.000000, 122.000000)">
                <g id="Card-Picture" transform="translate(74.000000, 193.000000)">
                    <g id="MasterCard" transform="translate(294.000000, 7.000000)">
                        <polygon id="Fill-1" fill="#FFFFFF" points="0.0646632124 47.9850777 47.9900518 47.9850777 47.9900518 0.233782383 0.0646632124 0.233782383"></polygon>
                        <polyline id="Fill-2" fill="#F2AD3D" points="33.3485596 38.0625078 34.0670674 38.0436062 34.7763731 37.9921244 35.4717513 37.9030881 36.1621554 37.7807254 36.833658 37.6257824 37.4962073 37.4377617 38.1443316 37.2171606 38.7785285 36.9682073 39.3983005 36.6864249 39.9996684 36.3810155 40.5821347 36.0427772 41.1504249 35.6811606 41.6953368 35.2914404 42.2213472 34.8780933 42.7287047 34.4411192 43.2124352 33.9762902 43.677513 33.4923109 44.1142383 32.9849534 44.5275855 32.458943 44.9175544 31.9142798 45.279171 31.3457409 45.6174093 30.7632746 45.9225699 30.1621554 46.204601 29.5421347 46.4535544 28.9079378 46.6741554 28.2598135 46.8621762 27.597513 47.0171192 26.9257617 47.1392332 26.2353575 47.2285181 25.540228 47.2802487 24.8309223 47.2989016 24.1124145 47.2802487 23.3983834 47.2285181 22.6938031 47.1392332 21.9986736 47.0171192 21.3174715 46.8621762 20.6457202 46.6741554 19.9883938 46.4535544 19.3400207 46.204601 18.7105492 45.9225699 18.0952539 45.6174093 17.4941347 45.279171 16.9163938 44.9175544 16.3481036 44.5275855 15.8031917 44.1142383 15.281658 43.677513 14.7745492 43.2124352 14.2908187 42.7287047 13.8302176 42.2213472 13.3934922 41.6953368 12.9801451 41.1504249 12.5904249 40.5821347 12.2285596 39.9996684 11.8950466 39.3983005 11.589886 38.7785285 11.3081036 38.1443316 11.0591503 37.4962073 10.8383005 36.833658 10.6505285 36.1621554 10.4953368 35.4717513 10.3732228 34.7763731 10.2839378 34.0670674 10.232456 33.3485596 10.2135544 32.6345285 10.232456 31.9254715 10.2839378 31.2300933 10.3732228 30.5444145 10.4953368 29.8726632 10.6505285 29.2103627 10.8383005 28.5669637 11.0591503 27.9327668 11.3081036 27.3174715 11.589886 26.7210777 11.8950466 26.1386114 12.2285596 25.5747979 12.5904249 25.029886 12.9801451 24.5038756 13.3934922 24.0012435 13.8302176 23.517513 14.2908187 23.0571606 14.7745492 22.6204352 15.281658 22.2070881 15.8031917 21.8218446 16.3481036 21.460228 16.9163938 21.126715 17.4941347 20.816829 18.0952539 20.5395233 18.7105492 20.2905699 19.3400207 20.0746943 19.9883938 19.8866736 20.6457202 19.7317306 21.3174715 19.6096166 21.9986736 19.5203316 22.6938031 19.468601 23.3983834 19.4499482 24.1124145 19.468601 24.8309223 19.5203316 25.540228 19.6096166 26.2353575 19.7317306 26.9257617 19.8866736 27.597513 20.0746943 28.2598135 20.2905699 28.9079378 20.5395233 29.5421347 20.816829 30.1621554 21.126715 30.7632746 21.460228 31.3457409 21.8218446 31.9142798 22.2070881 32.458943 22.6204352 32.9849534 23.0571606 33.4923109 23.517513 33.9762902 24.0012435 34.4411192 24.5038756 34.8780933 25.029886 35.2914404 25.5747979 35.6811606 26.1386114 36.0427772 26.7210777 36.3810155 27.3174715 36.6864249 27.9327668 36.9682073 28.5669637 37.2171606 29.2103627 37.4377617 29.8726632 37.6257824 30.5444145 37.7807254 31.2300933 37.9030881 31.9254715 37.9921244 32.6345285 38.0436062 33.3485596 38.0625078"></polyline>
                        <polyline id="Fill-3" fill="#D82331" points="14.7198342 38.0625078 15.4338653 38.0436062 16.143171 37.9921244 16.8383005 37.9030881 17.5239793 37.7807254 18.1957306 37.6257824 18.8580311 37.4377617 19.5014301 37.2171606 20.1356269 36.9682073 20.7509223 36.6864249 21.3475648 36.3810155 21.9300311 36.0427772 22.4935959 35.6811606 23.0385078 35.2914404 23.5645181 34.8780933 24.0671503 34.4411192 24.5508808 33.9762902 25.0112332 33.4923109 25.4479585 32.9849534 25.8613057 32.458943 26.2465492 31.9142798 26.6081658 31.3457409 26.9416788 30.7632746 27.2518135 30.1621554 27.5288705 29.5421347 27.7778238 28.9079378 27.9939482 28.2598135 28.1817202 27.597513 28.3366632 26.9257617 28.4587772 26.2353575 28.5480622 25.540228 28.5997927 24.8309223 28.6186943 24.1124145 28.5997927 23.3983834 28.5480622 22.6938031 28.4587772 21.9986736 28.3366632 21.3174715 28.1817202 20.6457202 27.9939482 19.9883938 27.7778238 19.3400207 27.5288705 18.7105492 27.2518135 18.0952539 26.9416788 17.4941347 26.6081658 16.9163938 26.2465492 16.3481036 25.8613057 15.8031917 25.4479585 15.281658 25.0112332 14.7745492 24.5508808 14.2908187 24.0671503 13.8302176 23.5645181 13.3934922 23.0385078 12.9801451 22.4935959 12.5904249 21.9300311 12.2285596 21.3475648 11.8950466 20.7509223 11.589886 20.1356269 11.3081036 19.5014301 11.0591503 18.8580311 10.8383005 18.1957306 10.6505285 17.5239793 10.4953368 16.8383005 10.3732228 16.143171 10.2839378 15.4338653 10.232456 14.7198342 10.2135544 14.0013264 10.232456 13.2920207 10.2839378 12.5968912 10.3732228 11.9062383 10.4953368 11.2347358 10.6505285 10.5724352 10.8383005 9.92431088 11.0591503 9.29011399 11.3081036 8.67009326 11.589886 8.06872539 11.8950466 7.48650777 12.2285596 6.91796891 12.5904249 6.37305699 12.9801451 5.84704663 13.3934922 5.33968912 13.8302176 4.85595855 14.2908187 4.39088083 14.7745492 3.95415544 15.281658 3.54080829 15.8031917 3.15108808 16.3481036 2.7892228 16.9163938 2.45098446 17.4941347 2.14582383 18.0952539 1.86404145 18.7105492 1.61508808 19.3400207 1.39423834 19.9883938 1.20646632 20.6457202 1.05127461 21.3174715 0.929160622 21.9986736 0.839875648 22.6938031 0.788393782 23.3983834 0.769492228 24.1124145 0.788393782 24.8309223 0.839875648 25.540228 0.929160622 26.2353575 1.05127461 26.9257617 1.20646632 27.597513 1.39423834 28.2598135 1.61508808 28.9079378 1.86404145 29.5421347 2.14582383 30.1621554 2.45098446 30.7632746 2.7892228 31.3457409 3.15108808 31.9142798 3.54080829 32.458943 3.95415544 32.9849534 4.39088083 33.4923109 4.85595855 33.9762902 5.33968912 34.4411192 5.84704663 34.8780933 6.37305699 35.2914404 6.91796891 35.6811606 7.48650777 36.0427772 8.06872539 36.3810155 8.67009326 36.6864249 9.29011399 36.9682073 9.92431088 37.2171606 10.5724352 37.4377617 11.2347358 37.6257824 11.9062383 37.7807254 12.5968912 37.9030881 13.2920207 37.9921244 14.0013264 38.0436062 14.7198342 38.0625078"></polyline>
                        <polyline id="Fill-4" fill="#F2AD3D" points="22.4043109 15.5542383 29.8022798 15.5542383 29.8022798 14.7979275 23.0432332 14.7979275 22.4043109 15.5542383"></polyline>
                        <polyline id="Fill-5" fill="#F2AD3D" points="21.2958342 17.2357306 29.8022798 17.2357306 29.8022798 16.4796684 21.7420104 16.4796684 21.2958342 17.2357306"></polyline>
                        <polyline id="Fill-6" fill="#F2AD3D" points="20.4691399 18.9124974 29.8022798 18.9124974 29.8022798 18.1561865 20.7979275 18.1561865 20.4691399 18.9124974"></polyline>
                        <polyline id="Fill-7" fill="#F2AD3D" points="19.9008497 20.5939896 29.8022798 20.5939896 29.8022798 19.8379275 20.1356269 19.8379275 19.9008497 20.5939896"></polyline>
                        <polyline id="Fill-8" fill="#F2AD3D" points="20.2296373 28.7201658 29.825658 28.7201658 29.825658 27.9638549 19.9948601 27.9638549 20.2296373 28.7201658"></polyline>
                        <polyline id="Fill-9" fill="#F2AD3D" points="20.938943 30.401658 29.825658 30.401658 29.825658 29.6453472 20.5865285 29.6453472 20.938943 30.401658"></polyline>
                        <polyline id="Fill-10" fill="#F2AD3D" points="21.9347565 32.0786736 29.825658 32.0786736 29.825658 31.3223627 21.460228 31.3223627 21.9347565 32.0786736"></polyline>
                        <polyline id="Fill-11" fill="#F2AD3D" points="23.306114 33.7601658 29.825658 33.7601658 29.825658 32.9991295 22.6438135 32.9991295 23.306114 33.7601658"></polyline>
                        <polyline id="Fill-12" fill="#F2AD3D" points="19.5673368 22.2710052 29.8022798 22.2710052 29.8022798 21.5146943 19.712829 21.5146943 19.5673368 22.2710052"></polyline>
                        <polyline id="Fill-13" fill="#F2AD3D" points="25.8050984 27.0431503 29.7082694 27.0431503 29.7082694 26.2870881 25.9458653 26.2870881 25.8050984 27.0431503"></polyline>
                        <polyline id="Fill-14" fill="#F2AD3D" points="26.1149845 25.3663834 29.7082694 25.3663834 29.7082694 24.6053472 26.256 24.6053472 26.1149845 25.3663834"></polyline>
                        <polyline id="Fill-15" fill="#F2AD3D" points="19.3089326 24.6053472 20.3236477 24.6053472 20.3236477 25.3663834 19.3559378 25.3663834 19.3089326 24.6053472"></polyline>
                        <polyline id="Fill-16" fill="#FFFFFF" points="17.4160415 23.6896166 17.3503834 23.6848912 17.2844767 23.6754404 17.223544 23.6659896 17.1623627 23.6567876 17.1061554 23.6473368 17.0449741 23.637886 16.9837927 23.6284352 16.9181347 23.6192332 16.8524767 23.6097824 16.7773679 23.605057 16.6928083 23.6003316 16.6035233 23.5956062 16.5047876 23.5956062 16.3968497 23.6003316 16.2747358 23.6097824 16.1384456 23.6192332 16.0444352 23.6331606 15.9551503 23.6473368 15.8753161 23.6754404 15.8049326 23.703544 15.7390259 23.7363731 15.6780933 23.7741762 15.6310881 23.8211813 15.5888083 23.8632124 15.5607047 23.914943 15.5370777 23.9666736 15.5278756 24.0231295 15.5278756 24.0793368 15.5418031 24.1405181 15.5607047 24.2014508 15.5982591 24.2626321 15.6452642 24.3235648 15.7390259 24.4128497 15.8519378 24.4834819 15.9835026 24.5444145 16.1242694 24.5961451 16.2747358 24.6431503 16.4296788 24.6946321 16.5846218 24.7510881 16.7348394 24.8122694 16.8758549 24.8918549 17.0074197 24.9905907 17.1248083 25.1079793 17.223544 25.2537202 17.2986528 25.4320415 17.345658 25.6434404 17.3643109 25.8971192 17.345658 26.1930777 17.3125803 26.4139275 17.2563731 26.6064249 17.1812642 26.7849948 17.0872539 26.9399378 16.9793161 27.076228 16.8569534 27.1936166 16.7256373 27.296829 16.5798964 27.386114 16.4296788 27.4564974 16.2747358 27.5176788 16.1148187 27.5646839 15.9506736 27.6022383 15.7907565 27.630342 15.6358135 27.6445181 15.4808705 27.6539689 15.3351295 27.6584456 15.1331813 27.6584456 14.9454093 27.6539689 14.7810155 27.6539689 14.6260725 27.6489948 14.485057 27.6445181 14.3582176 27.6350674 14.2455544 27.6256166 14.1373679 27.6116891 14.0388808 27.6022383 13.9495959 27.5833368 13.8603109 27.5694093 13.7804767 27.5457824 13.7006425 27.5271295 13.6255337 27.4987772 13.5501762 27.4706736 13.4705907 27.4425699 13.6817409 26.4044767 13.7242694 26.4139275 13.7757513 26.4278549 13.8414093 26.4467565 13.9214922 26.4654093 14.0060518 26.4843109 14.0998135 26.5032124 14.2032746 26.5265907 14.3159378 26.5454922 14.4333264 26.5641451 14.5554404 26.5830466 14.6822798 26.5969741 14.8138446 26.6111503 14.9501347 26.6158756 15.0861762 26.620601 15.2224663 26.620601 15.3587565 26.6158756 15.4950466 26.5875233 15.6029845 26.5499689 15.687544 26.498487 15.7532021 26.4325803 15.8002073 26.3669223 15.8377617 26.2918135 15.8613886 26.2167047 15.8800415 26.1460725 15.8894922 26.0097824 15.8472124 25.8923938 15.7673782 25.7986321 15.6499896 25.7187979 15.5089741 25.6481658 15.3445803 25.5777824 15.161285 25.5121244 14.9782383 25.4367668 14.7904663 25.352456 14.6118964 25.2537202 14.4475026 25.1316062 14.297285 24.9858653 14.1796477 24.807544 14.0950881 24.5961451 14.0528083 24.3424663 14.0575337 24.0417824 14.0811606 23.8587358 14.1139896 23.6848912 14.1609948 23.5252228 14.2172021 23.3747565 14.2925596 23.2339896 14.3771192 23.1118756 14.4756062 22.994487 14.5932435 22.8910259 14.729285 22.8017409 14.8795026 22.7266321 15.0486218 22.6562487 15.2366425 22.6045181 15.4480415 22.5622383 15.6780933 22.5294093 15.931772 22.5105078 16.208829 22.5057824 16.3826736 22.5057824 16.542342 22.5105078 16.6880829 22.5152332 16.819399 22.5199585 16.9370363 22.5294093 17.0449741 22.5388601 17.1389845 22.5480622 17.223544 22.557513 17.3033782 22.5669637 17.3690363 22.5811399 17.4302176 22.5905907 17.4864249 22.5997927 17.5334301 22.6092435 17.5757098 22.6139689 17.6179896 22.6234197 17.655544 22.6281451 17.4160415 23.6896166"></polyline>
                        <polyline id="Stroke-17" stroke="#FFFFFF" stroke-width="0.216" points="17.4160415 23.6896166 17.4160415 23.6896166 17.3503834 23.6848912 17.2844767 23.6754404 17.223544 23.6659896 17.1623627 23.6567876 17.1061554 23.6473368 17.0449741 23.637886 16.9837927 23.6284352 16.9181347 23.6192332 16.8524767 23.6097824 16.7773679 23.605057 16.6928083 23.6003316 16.6035233 23.5956062 16.5047876 23.5956062 16.3968497 23.6003316 16.2747358 23.6097824 16.1384456 23.6192332 16.0444352 23.6331606 15.9551503 23.6473368 15.8753161 23.6754404 15.8049326 23.703544 15.7390259 23.7363731 15.6780933 23.7741762 15.6310881 23.8211813 15.5888083 23.8632124 15.5607047 23.914943 15.5370777 23.9666736 15.5278756 24.0231295 15.5278756 24.0793368 15.5418031 24.1405181 15.5607047 24.2014508 15.5982591 24.2626321 15.6452642 24.3235648 15.7390259 24.4128497 15.8519378 24.4834819 15.9835026 24.5444145 16.1242694 24.5961451 16.2747358 24.6431503 16.4296788 24.6946321 16.5846218 24.7510881 16.7348394 24.8122694 16.8758549 24.8918549 17.0074197 24.9905907 17.1248083 25.1079793 17.223544 25.2537202 17.2986528 25.4320415 17.345658 25.6434404 17.3643109 25.8971192 17.345658 26.1930777 17.3125803 26.4139275 17.2563731 26.6064249 17.1812642 26.7849948 17.0872539 26.9399378 16.9793161 27.076228 16.8569534 27.1936166 16.7256373 27.296829 16.5798964 27.386114 16.4296788 27.4564974 16.2747358 27.5176788 16.1148187 27.5646839 15.9506736 27.6022383 15.7907565 27.630342 15.6358135 27.6445181 15.4808705 27.6539689 15.3351295 27.6584456 15.1331813 27.6584456 14.9454093 27.6539689 14.7810155 27.6539689 14.6260725 27.6489948 14.485057 27.6445181 14.3582176 27.6350674 14.2455544 27.6256166 14.1373679 27.6116891 14.0388808 27.6022383 13.9495959 27.5833368 13.8603109 27.5694093 13.7804767 27.5457824 13.7006425 27.5271295 13.6255337 27.4987772 13.5501762 27.4706736 13.4705907 27.4425699 13.6817409 26.4044767 13.7242694 26.4139275 13.7757513 26.4278549 13.8414093 26.4467565 13.9214922 26.4654093 14.0060518 26.4843109 14.0998135 26.5032124 14.2032746 26.5265907 14.3159378 26.5454922 14.4333264 26.5641451 14.5554404 26.5830466 14.6822798 26.5969741 14.8138446 26.6111503 14.9501347 26.6158756 15.0861762 26.620601 15.2224663 26.620601 15.3587565 26.6158756 15.4950466 26.5875233 15.6029845 26.5499689 15.687544 26.498487 15.7532021 26.4325803 15.8002073 26.3669223 15.8377617 26.2918135 15.8613886 26.2167047 15.8800415 26.1460725 15.8894922 26.0097824 15.8472124 25.8923938 15.7673782 25.7986321 15.6499896 25.7187979 15.5089741 25.6481658 15.3445803 25.5777824 15.161285 25.5121244 14.9782383 25.4367668 14.7904663 25.352456 14.6118964 25.2537202 14.4475026 25.1316062 14.297285 24.9858653 14.1796477 24.807544 14.0950881 24.5961451 14.0528083 24.3424663 14.0575337 24.0417824 14.0811606 23.8587358 14.1139896 23.6848912 14.1609948 23.5252228 14.2172021 23.3747565 14.2925596 23.2339896 14.3771192 23.1118756 14.4756062 22.994487 14.5932435 22.8910259 14.729285 22.8017409 14.8795026 22.7266321 15.0486218 22.6562487 15.2366425 22.6045181 15.4480415 22.5622383 15.6780933 22.5294093 15.931772 22.5105078 16.208829 22.5057824 16.3826736 22.5057824 16.542342 22.5105078 16.6880829 22.5152332 16.819399 22.5199585 16.9370363 22.5294093 17.0449741 22.5388601 17.1389845 22.5480622 17.223544 22.557513 17.3033782 22.5669637 17.3690363 22.5811399 17.4302176 22.5905907 17.4864249 22.5997927 17.5334301 22.6092435 17.5757098 22.6139689 17.6179896 22.6234197 17.655544 22.6281451 17.4160415 23.6896166"></polyline>
                        <polyline id="Fill-18" fill="#FFFFFF" points="18.5292435 21.4679378 19.8304663 21.4679378 19.6377202 22.6045181 20.4221347 22.6045181 20.2530155 23.6659896 19.4263212 23.6426114 18.9754197 26.2634611 18.9706943 26.3574715 18.9943212 26.4373057 19.0413264 26.498487 19.1022591 26.5499689 19.1868187 26.5830466 19.280829 26.6111503 19.3840415 26.6298031 19.4967047 26.6392539 19.6001658 26.6345285 19.6941762 26.6250777 19.7787358 26.6111503 19.8538446 26.5922487 19.9147772 26.5735959 19.957057 26.5594197 19.9854093 26.5499689 19.9948601 26.5454922 19.8304663 27.418943 19.7973886 27.4425699 19.7317306 27.4801244 19.6989016 27.4987772 19.6658238 27.5129534 19.6285181 27.5271295 19.5859896 27.5413057 19.5439585 27.5552332 19.4967047 27.5694093 19.4499482 27.5788601 19.3934922 27.5880622 19.337285 27.597513 19.2761036 27.6069637 19.2057202 27.6164145 19.1306114 27.6256166 19.0505285 27.6350674 18.6936373 27.6350674 18.5058653 27.6208912 18.3412228 27.6022383 18.1910052 27.5741347 18.0641658 27.5413057 17.956228 27.4987772 17.866943 27.4520207 17.7871088 27.3955648 17.7259275 27.3343834 17.679171 27.2687254 17.6460933 27.1888912 17.622715 27.109057 17.6085389 27.019772 17.6038135 26.9210363 17.6038135 26.8178238 17.6179896 26.709886 17.6321658 26.5922487 18.5292435 21.4679378"></polyline>
                        <polyline id="Stroke-19" stroke="#FFFFFF" stroke-width="0.216" points="18.5292435 21.4679378 19.8304663 21.4679378 19.6377202 22.6045181 20.4221347 22.6045181 20.2530155 23.6659896 19.4263212 23.6426114 18.9754197 26.2634611 18.9706943 26.3574715 18.9943212 26.4373057 19.0413264 26.498487 19.1022591 26.5499689 19.1868187 26.5830466 19.280829 26.6111503 19.3840415 26.6298031 19.4967047 26.6392539 19.6001658 26.6345285 19.6941762 26.6250777 19.7787358 26.6111503 19.8538446 26.5922487 19.9147772 26.5735959 19.957057 26.5594197 19.9854093 26.5499689 19.9948601 26.5454922 19.8304663 27.418943 19.7973886 27.4425699 19.7317306 27.4801244 19.6989016 27.4987772 19.6658238 27.5129534 19.6285181 27.5271295 19.5859896 27.5413057 19.5439585 27.5552332 19.4967047 27.5694093 19.4499482 27.5788601 19.3934922 27.5880622 19.337285 27.597513 19.2761036 27.6069637 19.2057202 27.6164145 19.1306114 27.6256166 19.0505285 27.6350674 18.6936373 27.6350674 18.5058653 27.6208912 18.3412228 27.6022383 18.1910052 27.5741347 18.0641658 27.5413057 17.956228 27.4987772 17.866943 27.4520207 17.7871088 27.3955648 17.7259275 27.3343834 17.679171 27.2687254 17.6460933 27.1888912 17.622715 27.109057 17.6085389 27.019772 17.6038135 26.9210363 17.6038135 26.8178238 17.6179896 26.709886 17.6321658 26.5922487 18.5292435 21.4679378"></polyline>
                        <polyline id="Fill-20" fill="#FFFFFF" points="21.460228 25.4367668 21.4460518 25.5168497 21.4415751 25.6011606 21.4507772 25.6904456 21.4696788 25.7797306 21.5025078 25.8690155 21.5400622 25.9535751 21.5917927 26.0428601 21.648 26.1226943 21.7139067 26.2025285 21.7842902 26.2729119 21.8596477 26.3432953 21.9439585 26.3997513 22.0285181 26.4514819 22.1225285 26.4937617 22.2165389 26.5265907 22.3105492 26.5454922 22.4324145 26.5641451 22.5500518 26.5783212 22.6721658 26.5922487 22.7942798 26.6016995 22.9163938 26.6064249 23.0432332 26.6064249 23.1653472 26.6016995 23.2921865 26.5922487 23.4190259 26.5735959 23.5456166 26.5499689 23.6771813 26.5218653 23.8040207 26.4795855 23.9355855 26.4278549 24.0718756 26.3716477 24.2034404 26.2965389 24.3394819 26.2167047 24.1517098 27.3719378 24.0012435 27.4472953 23.9261347 27.475399 23.8557513 27.5035026 23.7853679 27.5271295 23.7100104 27.5505078 23.6351503 27.5694093 23.5550674 27.5833368 23.4705078 27.597513 23.3767461 27.6069637 23.2780104 27.6164145 23.1698238 27.6256166 23.0479585 27.630342 22.9211192 27.630342 22.7753782 27.6350674 22.6204352 27.6350674 22.3901347 27.630342 22.1553575 27.6069637 21.9205803 27.5741347 21.6855544 27.5176788 21.4555026 27.4472953 21.2346528 27.3580104 21.0235026 27.2406218 20.8260311 27.1043316 20.6429845 26.9446632 20.4833161 26.7519171 20.3470259 26.5360415 20.2343627 26.2870881 20.1545285 26.0097824 20.1027979 25.695171 20.0886218 25.3477306 20.1122487 24.962487 20.1309016 24.8122694 20.1592539 24.6384249 20.1968083 24.4551295 20.2482902 24.2579067 20.3189223 24.0559585 20.4034819 23.8540104 20.5114197 23.6473368 20.6429845 23.450114 20.7932021 23.2620933 20.9764974 23.0835233 21.183171 22.9238549 21.4179482 22.7830881 21.6902798 22.6656995 21.9956891 22.5811399 22.3339275 22.5246839 22.7144456 22.5057824 22.8974922 22.5105078 23.0902383 22.5294093 23.2827358 22.5622383 23.4752332 22.6092435 23.6632539 22.6796269 23.8463005 22.7641865 24.0154197 22.8768497 24.1703627 23.0084145 24.3113782 23.1680829 24.4287668 23.3561036 24.5227772 23.572228 24.5884352 23.8211813 24.6259896 24.1029637 24.630715 24.4223005 24.597886 24.7791917 24.5275026 25.173886 24.5038756 25.4603938 21.0797098 25.4603938 21.2958342 24.5349637 23.3531192 24.5349637 23.3625699 24.4175751 23.3578446 24.3049119 23.3483938 24.2014508 23.3297409 24.1076891 23.2966632 24.0184041 23.2638342 23.9385699 23.2170777 23.8679378 23.1698238 23.8022798 23.1136166 23.7458238 23.0526839 23.6988187 22.9820518 23.6567876 22.9116684 23.6192332 22.8365596 23.5908808 22.7614508 23.572228 22.6813679 23.5580518 22.597057 23.548601 22.507772 23.5533264 22.4232124 23.5675026 22.3433782 23.5861554 22.2632953 23.6145078 22.1837098 23.6520622 22.1130777 23.694342 22.0426943 23.7458238 21.981513 23.8022798 21.9205803 23.8679378 21.8641244 23.9385699 21.8123938 24.0136788 21.7703627 24.093513 21.7280829 24.1780725 21.6950052 24.2720829 21.6669016 24.3658446 21.648 24.4645803 21.460228 25.4367668"></polyline>
                        <polyline id="Stroke-21" stroke="#FFFFFF" stroke-width="0.216" points="21.460228 25.4367668 21.460228 25.4367668 21.4460518 25.5168497 21.4415751 25.6011606 21.4507772 25.6904456 21.4696788 25.7797306 21.5025078 25.8690155 21.5400622 25.9535751 21.5917927 26.0428601 21.648 26.1226943 21.7139067 26.2025285 21.7842902 26.2729119 21.8596477 26.3432953 21.9439585 26.3997513 22.0285181 26.4514819 22.1225285 26.4937617 22.2165389 26.5265907 22.3105492 26.5454922 22.4324145 26.5641451 22.5500518 26.5783212 22.6721658 26.5922487 22.7942798 26.6016995 22.9163938 26.6064249 23.0432332 26.6064249 23.1653472 26.6016995 23.2921865 26.5922487 23.4190259 26.5735959 23.5456166 26.5499689 23.6771813 26.5218653 23.8040207 26.4795855 23.9355855 26.4278549 24.0718756 26.3716477 24.2034404 26.2965389 24.3394819 26.2167047 24.1517098 27.3719378 24.0012435 27.4472953 23.9261347 27.475399 23.8557513 27.5035026 23.7853679 27.5271295 23.7100104 27.5505078 23.6351503 27.5694093 23.5550674 27.5833368 23.4705078 27.597513 23.3767461 27.6069637 23.2780104 27.6164145 23.1698238 27.6256166 23.0479585 27.630342 22.9211192 27.630342 22.7753782 27.6350674 22.6204352 27.6350674 22.3901347 27.630342 22.1553575 27.6069637 21.9205803 27.5741347 21.6855544 27.5176788 21.4555026 27.4472953 21.2346528 27.3580104 21.0235026 27.2406218 20.8260311 27.1043316 20.6429845 26.9446632 20.4833161 26.7519171 20.3470259 26.5360415 20.2343627 26.2870881 20.1545285 26.0097824 20.1027979 25.695171 20.0886218 25.3477306 20.1122487 24.962487 20.1309016 24.8122694 20.1592539 24.6384249 20.1968083 24.4551295 20.2482902 24.2579067 20.3189223 24.0559585 20.4034819 23.8540104 20.5114197 23.6473368 20.6429845 23.450114 20.7932021 23.2620933 20.9764974 23.0835233 21.183171 22.9238549 21.4179482 22.7830881 21.6902798 22.6656995 21.9956891 22.5811399 22.3339275 22.5246839 22.7144456 22.5057824 22.8974922 22.5105078 23.0902383 22.5294093 23.2827358 22.5622383 23.4752332 22.6092435 23.6632539 22.6796269 23.8463005 22.7641865 24.0154197 22.8768497 24.1703627 23.0084145 24.3113782 23.1680829 24.4287668 23.3561036 24.5227772 23.572228 24.5884352 23.8211813 24.6259896 24.1029637 24.630715 24.4223005 24.597886 24.7791917 24.5275026 25.173886 24.5038756 25.4603938 21.0797098 25.4603938 21.2958342 24.5349637 23.3531192 24.5349637 23.3625699 24.4175751 23.3578446 24.3049119 23.3483938 24.2014508 23.3297409 24.1076891 23.2966632 24.0184041 23.2638342 23.9385699 23.2170777 23.8679378 23.1698238 23.8022798 23.1136166 23.7458238 23.0526839 23.6988187 22.9820518 23.6567876 22.9116684 23.6192332 22.8365596 23.5908808 22.7614508 23.572228 22.6813679 23.5580518 22.597057 23.548601 22.507772 23.5533264 22.4232124 23.5675026 22.3433782 23.5861554 22.2632953 23.6145078 22.1837098 23.6520622 22.1130777 23.694342 22.0426943 23.7458238 21.981513 23.8022798 21.9205803 23.8679378 21.8641244 23.9385699 21.8123938 24.0136788 21.7703627 24.093513 21.7280829 24.1780725 21.6950052 24.2720829 21.6669016 24.3658446 21.648 24.4645803 21.460228 25.4367668"></polyline>
                        <polyline id="Fill-22" fill="#FFFFFF" points="32.6628808 22.8863005 32.6016995 22.8534715 32.5407668 22.8253679 32.4748601 22.7925389 32.4044767 22.7594611 32.3340933 22.7313575 32.2542591 22.7032539 32.1741762 22.6749016 32.0898653 22.6467979 32.0005803 22.6234197 31.9112953 22.6045181 31.8125596 22.5858653 31.7140725 22.5716891 31.605886 22.5622383 31.4979482 22.5527876 31.1502591 22.5527876 31.0281451 22.5622383 30.9013057 22.5764145 30.7699896 22.5997927 30.6384249 22.6373472 30.5068601 22.6890777 30.3752953 22.7549845 30.2437306 22.8392953 30.1168912 22.9427565 29.9947772 23.0648705 29.8773886 23.2150881 29.7647254 23.3889326 29.6612642 23.5956062 29.5627772 23.8303834 29.4734922 24.093513 29.3983834 24.3941969 29.3700311 24.5630674 29.3513782 24.7274611 29.3419275 24.8918549 29.3466528 25.051772 29.360829 25.2114404 29.393658 25.361658 29.4359378 25.5026736 29.4876684 25.6434404 29.5580518 25.7702798 29.6426114 25.8923938 29.7410984 26.0005803 29.8540104 26.0990674 29.980601 26.1836269 30.126342 26.2542591 30.2860104 26.3151917 30.4645803 26.3574715 30.525513 26.3716477 30.5961451 26.3858238 30.6807047 26.3950259 30.7744663 26.4044767 30.8779275 26.4139275 31.1032539 26.4139275 31.2208912 26.4044767 31.3430052 26.3903005 31.4651192 26.3669223 31.5825078 26.3340933 31.6998964 26.2965389 31.817285 26.2448083 31.9254715 26.1836269 32.0239585 26.1085181 32.1179689 26.0239585 31.9065699 27.2781762 31.8782176 27.3015544 31.850114 27.329658 31.8125596 27.3627358 31.7702798 27.3908394 31.7185492 27.4283938 31.6528912 27.4612228 31.5777824 27.4940518 31.4932228 27.5224041 31.385285 27.5552332 31.2629223 27.5788601 31.1221554 27.597513 30.9577617 27.6164145 30.7744663 27.6256166 30.5630674 27.630342 30.3235648 27.6256166 30.0606839 27.6116891 29.8445596 27.5880622 29.6284352 27.5413057 29.4123109 27.4706736 29.1964352 27.3766632 28.9897617 27.264 28.7922902 27.1232332 28.6045181 26.9588394 28.4306736 26.7708187 28.2757306 26.5594197 28.1441658 26.3246425 28.0315026 26.061513 27.946943 25.7750052 27.890487 25.4603938 27.8718342 25.1268808 27.8810363 24.7605389 27.9327668 24.3705699 27.9703212 24.1780725 28.012601 23.9900518 28.0596062 23.8070052 28.1066114 23.6331606 28.158342 23.4687668 28.2192746 23.3043731 28.280456 23.1494301 28.346114 23.0036891 28.4167461 22.8581969 28.4871295 22.7219067 28.5669637 22.5905907 28.6515233 22.468228 28.7360829 22.3508394 28.8298446 22.2381762 28.9238549 22.134715 29.0225907 22.036228 29.1305285 21.9422176 29.2384663 21.8529326 29.3513782 21.7730984 29.4687668 21.6979896 29.5956062 21.6276062 29.7224456 21.5664249 29.8540104 21.5102176 29.9900518 21.458487 30.1357927 21.4114819 30.281285 21.3739275 30.4317513 21.3410984 30.5914197 21.3127461 30.7510881 21.2893679 30.9202073 21.2704663 31.0893264 21.2610155 31.2676477 21.2565389 31.418114 21.2610155 31.5636062 21.2704663 31.7046218 21.2846425 31.8453886 21.303544 31.9769534 21.3221969 32.1037927 21.3503005 32.2259067 21.3739275 32.3388187 21.4020311 32.4467565 21.4303834 32.5407668 21.458487 32.6298031 21.4865907 32.7051606 21.5146943 32.7708187 21.5383212 32.8272746 21.5572228 32.8695544 21.5758756 32.897658 21.5853264 32.6628808 22.8863005"></polyline>
                        <polyline id="Stroke-23" stroke="#FFFFFF" stroke-width="0.216" points="32.6628808 22.8863005 32.6628808 22.8863005 32.6016995 22.8534715 32.5407668 22.8253679 32.4748601 22.7925389 32.4044767 22.7594611 32.3340933 22.7313575 32.2542591 22.7032539 32.1741762 22.6749016 32.0898653 22.6467979 32.0005803 22.6234197 31.9112953 22.6045181 31.8125596 22.5858653 31.7140725 22.5716891 31.605886 22.5622383 31.4979482 22.5527876 31.1502591 22.5527876 31.0281451 22.5622383 30.9013057 22.5764145 30.7699896 22.5997927 30.6384249 22.6373472 30.5068601 22.6890777 30.3752953 22.7549845 30.2437306 22.8392953 30.1168912 22.9427565 29.9947772 23.0648705 29.8773886 23.2150881 29.7647254 23.3889326 29.6612642 23.5956062 29.5627772 23.8303834 29.4734922 24.093513 29.3983834 24.3941969 29.3700311 24.5630674 29.3513782 24.7274611 29.3419275 24.8918549 29.3466528 25.051772 29.360829 25.2114404 29.393658 25.361658 29.4359378 25.5026736 29.4876684 25.6434404 29.5580518 25.7702798 29.6426114 25.8923938 29.7410984 26.0005803 29.8540104 26.0990674 29.980601 26.1836269 30.126342 26.2542591 30.2860104 26.3151917 30.4645803 26.3574715 30.525513 26.3716477 30.5961451 26.3858238 30.6807047 26.3950259 30.7744663 26.4044767 30.8779275 26.4139275 31.1032539 26.4139275 31.2208912 26.4044767 31.3430052 26.3903005 31.4651192 26.3669223 31.5825078 26.3340933 31.6998964 26.2965389 31.817285 26.2448083 31.9254715 26.1836269 32.0239585 26.1085181 32.1179689 26.0239585 31.9065699 27.2781762 31.8782176 27.3015544 31.850114 27.329658 31.8125596 27.3627358 31.7702798 27.3908394 31.7185492 27.4283938 31.6528912 27.4612228 31.5777824 27.4940518 31.4932228 27.5224041 31.385285 27.5552332 31.2629223 27.5788601 31.1221554 27.597513 30.9577617 27.6164145 30.7744663 27.6256166 30.5630674 27.630342 30.3235648 27.6256166 30.0606839 27.6116891 29.8445596 27.5880622 29.6284352 27.5413057 29.4123109 27.4706736 29.1964352 27.3766632 28.9897617 27.264 28.7922902 27.1232332 28.6045181 26.9588394 28.4306736 26.7708187 28.2757306 26.5594197 28.1441658 26.3246425 28.0315026 26.061513 27.946943 25.7750052 27.890487 25.4603938 27.8718342 25.1268808 27.8810363 24.7605389 27.9327668 24.3705699 27.9703212 24.1780725 28.012601 23.9900518 28.0596062 23.8070052 28.1066114 23.6331606 28.158342 23.4687668 28.2192746 23.3043731 28.280456 23.1494301 28.346114 23.0036891 28.4167461 22.8581969 28.4871295 22.7219067 28.5669637 22.5905907 28.6515233 22.468228 28.7360829 22.3508394 28.8298446 22.2381762 28.9238549 22.134715 29.0225907 22.036228 29.1305285 21.9422176 29.2384663 21.8529326 29.3513782 21.7730984 29.4687668 21.6979896 29.5956062 21.6276062 29.7224456 21.5664249 29.8540104 21.5102176 29.9900518 21.458487 30.1357927 21.4114819 30.281285 21.3739275 30.4317513 21.3410984 30.5914197 21.3127461 30.7510881 21.2893679 30.9202073 21.2704663 31.0893264 21.2610155 31.2676477 21.2565389 31.418114 21.2610155 31.5636062 21.2704663 31.7046218 21.2846425 31.8453886 21.303544 31.9769534 21.3221969 32.1037927 21.3503005 32.2259067 21.3739275 32.3388187 21.4020311 32.4467565 21.4303834 32.5407668 21.458487 32.6298031 21.4865907 32.7051606 21.5146943 32.7708187 21.5383212 32.8272746 21.5572228 32.8695544 21.5758756 32.897658 21.5853264 32.6628808 22.8863005"></polyline>
                        <polyline id="Fill-24" fill="#FFFFFF" points="44.2269016 27.6350674 42.9259275 27.6350674 43.0199378 27.1137824 43.0199378 27.0667772 42.9445803 27.1605389 42.8649948 27.2453472 42.7849119 27.320456 42.700601 27.386114 42.6157927 27.4472953 42.5314819 27.4987772 42.4469223 27.5413057 42.3576373 27.5833368 42.2683523 27.6164145 42.1790674 27.6397927 42.0897824 27.663171 41.9960207 27.6773472 41.9020104 27.6915233 41.8127254 27.7007254 41.718715 27.7056995 41.6247047 27.7056995 41.3807254 27.6867979 41.1551503 27.6350674 40.9484767 27.5552332 40.760456 27.4472953 40.5913368 27.3110052 40.4411192 27.1513368 40.3095544 26.9774922 40.1968912 26.7802694 40.1028808 26.5688705 40.027772 26.3480207 39.9760415 26.1179689 39.938487 25.8784663 39.9245596 25.6389637 39.929285 25.394487 39.9526632 25.1549845 39.994943 24.9154819 40.0653264 24.6384249 40.149886 24.3752953 40.2486218 24.1357927 40.3660104 23.9104663 40.4881244 23.6988187 40.6291399 23.5110466 40.7746321 23.3419275 40.9295751 23.1869845 41.0942176 23.0506943 41.2678135 22.9333057 41.4463834 22.8300933 41.6247047 22.7502591 41.8127254 22.6843523 42.0004974 22.6420725 42.1885181 22.6139689 42.3810155 22.6045181 42.5173057 22.6092435 42.6488705 22.6234197 42.7709845 22.6467979 42.8836477 22.6796269 42.9918342 22.7171813 43.0855959 22.7594611 43.1796062 22.8111917 43.2641658 22.8629223 43.3392746 22.9191295 43.409658 22.9803109 43.4708394 23.0414922 43.5270466 23.1024249 43.5740518 23.1633575 43.6163316 23.2245389 43.653886 23.2809948 43.6822383 23.3372021 44.0110259 21.4913161 45.2886218 21.4913161 44.2269016 27.6350674"></polyline>
                        <polyline id="Stroke-25" stroke="#FFFFFF" stroke-width="0.216" points="44.2269016 27.6350674 42.9259275 27.6350674 43.0199378 27.1137824 43.0199378 27.0667772 42.9445803 27.1605389 42.8649948 27.2453472 42.7849119 27.320456 42.700601 27.386114 42.6157927 27.4472953 42.5314819 27.4987772 42.4469223 27.5413057 42.3576373 27.5833368 42.2683523 27.6164145 42.1790674 27.6397927 42.0897824 27.663171 41.9960207 27.6773472 41.9020104 27.6915233 41.8127254 27.7007254 41.718715 27.7056995 41.6247047 27.7056995 41.3807254 27.6867979 41.1551503 27.6350674 40.9484767 27.5552332 40.760456 27.4472953 40.5913368 27.3110052 40.4411192 27.1513368 40.3095544 26.9774922 40.1968912 26.7802694 40.1028808 26.5688705 40.027772 26.3480207 39.9760415 26.1179689 39.938487 25.8784663 39.9245596 25.6389637 39.929285 25.394487 39.9526632 25.1549845 39.994943 24.9154819 40.0653264 24.6384249 40.149886 24.3752953 40.2486218 24.1357927 40.3660104 23.9104663 40.4881244 23.6988187 40.6291399 23.5110466 40.7746321 23.3419275 40.9295751 23.1869845 41.0942176 23.0506943 41.2678135 22.9333057 41.4463834 22.8300933 41.6247047 22.7502591 41.8127254 22.6843523 42.0004974 22.6420725 42.1885181 22.6139689 42.3810155 22.6045181 42.5173057 22.6092435 42.6488705 22.6234197 42.7709845 22.6467979 42.8836477 22.6796269 42.9918342 22.7171813 43.0855959 22.7594611 43.1796062 22.8111917 43.2641658 22.8629223 43.3392746 22.9191295 43.409658 22.9803109 43.4708394 23.0414922 43.5270466 23.1024249 43.5740518 23.1633575 43.6163316 23.2245389 43.653886 23.2809948 43.6822383 23.3372021 44.0110259 21.4913161 45.2886218 21.4913161 44.2269016 27.6350674"></polyline>
                        <polyline id="Fill-26" fill="#F2AD3D" points="42.0992332 26.498487 42.2307979 26.4890363 42.3529119 26.4609326 42.4655751 26.4278549 42.5737617 26.3763731 42.6722487 26.3199171 42.7662591 26.2495337 42.855544 26.1696995 42.9353782 26.0851399 43.0057617 25.9911295 43.0714197 25.8876684 43.132601 25.7797306 43.1843316 25.6670674 43.2313368 25.5496788 43.2688912 25.4275648 43.3017202 25.3007254 43.3250984 25.173886 43.3487254 25.0423212 43.3626528 24.9060311 43.3626528 24.7791917 43.3579275 24.6478756 43.344 24.525513 43.3250984 24.4081244 43.2922694 24.2954611 43.254715 24.1875233 43.2077098 24.093513 43.1515026 24.004228 43.0903212 23.9291192 43.0199378 23.8632124 42.9401036 23.8070052 42.855544 23.7694508 42.7662591 23.7458238 42.6675233 23.7363731 42.5406839 23.7458238 42.423544 23.7647254 42.3153575 23.8022798 42.207171 23.849285 42.1134093 23.9104663 42.019399 23.9855751 41.9395648 24.0654093 41.8597306 24.1544456 41.7890984 24.2579067 41.7234404 24.3658446 41.6625078 24.4787565 41.6107772 24.6008705 41.563772 24.7274611 41.5262176 24.8543005 41.4886632 24.9905907 41.4605596 25.1268808 41.4369326 25.3335544 41.4463834 25.5588808 41.4792124 25.7891813 41.5403938 26.0097824 41.6341554 26.2025285 41.7562694 26.3574715 41.9114611 26.4609326 42.0992332 26.498487"></polyline>
                        <polyline id="Fill-27" fill="#FFFFFF" points="13.2544663 26.5922487 13.0664456 27.6350674 11.8828601 27.6350674 11.9156891 27.4425699 11.9393161 27.2687254 11.9579689 27.1371606 11.9768705 27.0667772 11.9109637 27.141886 11.8358549 27.2169948 11.7468187 27.2876269 11.6480829 27.353285 11.535171 27.418943 11.4177824 27.475399 11.2956684 27.5318549 11.168829 27.5788601 11.0327876 27.6208912 10.8964974 27.6539689 10.7602073 27.6820725 10.6194404 27.7007254 10.4831503 27.7101762 10.3468601 27.7149016 10.2152953 27.7007254 10.0887047 27.6820725 9.92431088 27.6397927 9.77384456 27.5927876 9.64227979 27.5318549 9.52489119 27.4612228 9.42167876 27.386114 9.32766839 27.3015544 9.25255959 27.2122694 9.18665285 27.1185078 9.1304456 27.019772 9.08344041 26.9163109 9.04588601 26.8130984 9.01753368 26.709886 8.99888083 26.6016995 8.98470466 26.4937617 8.97525389 26.3903005 8.97525389 26.2870881 8.98943005 26.1037927 9.01753368 25.9299482 9.06453886 25.7655544 9.12572021 25.605886 9.20082902 25.4556684 9.2853886 25.3193782 9.38412435 25.1878135 9.49678756 25.0704249 9.61417617 24.962487 9.74574093 24.8637513 9.88178238 24.774715 10.0227979 24.6993575 10.1730155 24.6336995 10.3282073 24.5819689 10.4878756 24.5396891 10.6522694 24.5115855 10.6617202 24.5115855 10.6850984 24.5068601 10.7181762 24.5021347 10.769658 24.4974093 10.826114 24.4879585 10.891772 24.4834819 10.9621554 24.4740311 11.0419896 24.4645803 11.1220725 24.4551295 11.201658 24.4456788 11.2864663 24.4409534 11.3615751 24.4317513 11.4366839 24.4270259 11.5070674 24.4223005 11.5729741 24.4175751 11.7326425 24.4175751 11.8453057 24.4223005 11.9485181 24.4270259 12.0519793 24.4270259 12.1365389 24.4317513 12.2021969 24.4364767 12.2492021 24.4409534 12.2633782 24.4409534 12.272829 24.4081244 12.3009326 24.3235648 12.3243109 24.2250777 12.3337617 24.1357927 12.3151088 24.0325803 12.272829 23.9385699 12.2163731 23.8540104 12.1412642 23.7836269 12.0519793 23.7224456 11.9532435 23.6801658 11.8405803 23.6520622 11.7184663 23.6426114 11.5869016 23.637886 11.4461347 23.6331606 11.3003938 23.6331606 11.1501762 23.637886 10.9952332 23.6473368 10.8447668 23.6612642 10.6945492 23.6754404 10.5488083 23.694342 10.4080415 23.7129948 10.2717513 23.7363731 10.1496373 23.76 10.0369741 23.7836269 9.93351295 23.8117306 9.84895337 23.8398342 9.78329534 23.8726632 9.73156477 23.9010155 10.0650777 22.7689119 10.1682902 22.7266321 10.2717513 22.6890777 10.3844145 22.6562487 10.6099896 22.6092435 10.7321036 22.5905907 10.8542176 22.5716891 10.981057 22.5622383 11.1126218 22.5527876 11.2486632 22.5480622 11.3896788 22.5433368 11.8405803 22.5433368 12.0049741 22.5480622 12.1693679 22.5527876 12.3009326 22.5622383 12.4419482 22.5858653 12.5874404 22.6186943 12.737658 22.6609741 12.883399 22.7171813 13.0241658 22.7830881 13.1651813 22.8629223 13.2967461 22.9522073 13.4141347 23.0554197 13.5173472 23.1680829 13.6113575 23.2949223 13.6817409 23.4359378 13.7287461 23.5861554 13.7570984 23.7458238 13.7570984 23.9243938 13.7287461 24.1124145 13.2544663 26.5922487"></polyline>
                        <polyline id="Stroke-28" stroke="#FFFFFF" stroke-width="0.216" points="13.2544663 26.5922487 13.0664456 27.6350674 11.8828601 27.6350674 11.9156891 27.4425699 11.9393161 27.2687254 11.9579689 27.1371606 11.9768705 27.0667772 11.9109637 27.141886 11.8358549 27.2169948 11.7468187 27.2876269 11.6480829 27.353285 11.535171 27.418943 11.4177824 27.475399 11.2956684 27.5318549 11.168829 27.5788601 11.0327876 27.6208912 10.8964974 27.6539689 10.7602073 27.6820725 10.6194404 27.7007254 10.4831503 27.7101762 10.3468601 27.7149016 10.2152953 27.7007254 10.0887047 27.6820725 9.92431088 27.6397927 9.77384456 27.5927876 9.64227979 27.5318549 9.52489119 27.4612228 9.42167876 27.386114 9.32766839 27.3015544 9.25255959 27.2122694 9.18665285 27.1185078 9.1304456 27.019772 9.08344041 26.9163109 9.04588601 26.8130984 9.01753368 26.709886 8.99888083 26.6016995 8.98470466 26.4937617 8.97525389 26.3903005 8.97525389 26.2870881 8.98943005 26.1037927 9.01753368 25.9299482 9.06453886 25.7655544 9.12572021 25.605886 9.20082902 25.4556684 9.2853886 25.3193782 9.38412435 25.1878135 9.49678756 25.0704249 9.61417617 24.962487 9.74574093 24.8637513 9.88178238 24.774715 10.0227979 24.6993575 10.1730155 24.6336995 10.3282073 24.5819689 10.4878756 24.5396891 10.6522694 24.5115855 10.6617202 24.5115855 10.6850984 24.5068601 10.7181762 24.5021347 10.769658 24.4974093 10.826114 24.4879585 10.891772 24.4834819 10.9621554 24.4740311 11.0419896 24.4645803 11.1220725 24.4551295 11.201658 24.4456788 11.2864663 24.4409534 11.3615751 24.4317513 11.4366839 24.4270259 11.5070674 24.4223005 11.5729741 24.4175751 11.7326425 24.4175751 11.8453057 24.4223005 11.9485181 24.4270259 12.0519793 24.4270259 12.1365389 24.4317513 12.2021969 24.4364767 12.2492021 24.4409534 12.2633782 24.4409534 12.272829 24.4081244 12.3009326 24.3235648 12.3243109 24.2250777 12.3337617 24.1357927 12.3151088 24.0325803 12.272829 23.9385699 12.2163731 23.8540104 12.1412642 23.7836269 12.0519793 23.7224456 11.9532435 23.6801658 11.8405803 23.6520622 11.7184663 23.6426114 11.5869016 23.637886 11.4461347 23.6331606 11.3003938 23.6331606 11.1501762 23.637886 10.9952332 23.6473368 10.8447668 23.6612642 10.6945492 23.6754404 10.5488083 23.694342 10.4080415 23.7129948 10.2717513 23.7363731 10.1496373 23.76 10.0369741 23.7836269 9.93351295 23.8117306 9.84895337 23.8398342 9.78329534 23.8726632 9.73156477 23.9010155 10.0650777 22.7689119 10.1682902 22.7266321 10.2717513 22.6890777 10.3844145 22.6562487 10.6099896 22.6092435 10.7321036 22.5905907 10.8542176 22.5716891 10.981057 22.5622383 11.1126218 22.5527876 11.2486632 22.5480622 11.3896788 22.5433368 11.8405803 22.5433368 12.0049741 22.5480622 12.1693679 22.5527876 12.3009326 22.5622383 12.4419482 22.5858653 12.5874404 22.6186943 12.737658 22.6609741 12.883399 22.7171813 13.0241658 22.7830881 13.1651813 22.8629223 13.2967461 22.9522073 13.4141347 23.0554197 13.5173472 23.1680829 13.6113575 23.2949223 13.6817409 23.4359378 13.7287461 23.5861554 13.7570984 23.7458238 13.7570984 23.9243938 13.7287461 24.1124145 13.2544663 26.5922487"></polyline>
                        <polyline id="Fill-29" fill="#D82331" points="12.1223627 25.3663834 12.1176373 25.3430052 12.0989845 25.3193782 12.0706321 25.3052021 12.0238756 25.296 11.9721451 25.2865492 11.9109637 25.2818238 11.7701969 25.2818238 11.6950881 25.2865492 11.6150052 25.296 11.5398964 25.3052021 11.4647876 25.3146528 11.3944041 25.3241036 11.3284974 25.3382798 11.2722902 25.352456 11.2205596 25.3663834 11.1877306 25.3758342 11.1501762 25.3900104 11.0984456 25.4086632 11.046715 25.4320415 10.9857824 25.4603938 10.924601 25.4932228 10.858943 25.5260518 10.7977617 25.5636062 10.7321036 25.6106114 10.671171 25.6576166 10.614715 25.7140725 10.5629845 25.7702798 10.5159793 25.8314611 10.4831503 25.8971192 10.4550466 25.972228 10.4408705 26.0473368 10.4361451 26.2072539 10.4595233 26.3340933 10.5065285 26.4278549 10.5677098 26.498487 10.6380933 26.5454922 10.7181762 26.5735959 10.7930363 26.5875233 10.8683938 26.5922487 11.0091606 26.5875233 11.136 26.5735959 11.258114 26.5546943 11.3660518 26.5265907 11.4600622 26.4937617 11.5493472 26.4514819 11.6291813 26.4092021 11.6998135 26.3574715 11.7607461 26.3104663 11.8172021 26.2542591 11.8642073 26.2025285 11.9017617 26.1460725 11.9345907 26.0898653 11.9626943 26.0334093 11.9863212 25.9816788 12.0002487 25.9299482 12.0378031 25.7939067 12.0706321 25.6389637 12.0989845 25.4884974 12.1223627 25.3663834"></polyline>
                        <polyline id="Fill-30" fill="#FFFFFF" points="3.37168912 27.6350674 2.09409326 27.6350674 3.16029016 21.4679378 5.38196891 21.4679378 5.59336788 25.1268808 7.12936788 21.4679378 9.44978238 21.4679378 8.35995855 27.6350674 7.08236269 27.6350674 7.89040415 23.0273161 7.83867358 23.0273161 5.92688083 27.6350674 4.48489119 27.6350674 4.47544041 27.4425699 4.4426114 26.930487 4.40033161 26.2025285 4.30656995 24.525513 4.26429016 23.7881036 4.23121244 23.2526425 4.22176166 23.0273161 4.15137824 23.0273161 3.37168912 27.6350674"></polyline>
                        <polyline id="Stroke-31" stroke="#FFFFFF" stroke-width="0.216" points="3.37168912 27.6350674 2.09409326 27.6350674 3.16029016 21.4679378 5.38196891 21.4679378 5.59336788 25.1268808 7.12936788 21.4679378 9.44978238 21.4679378 8.35995855 27.6350674 7.08236269 27.6350674 7.89040415 23.0273161 7.83867358 23.0273161 5.92688083 27.6350674 4.48489119 27.6350674 4.47544041 27.4425699 4.4426114 26.930487 4.40033161 26.2025285 4.30656995 24.525513 4.26429016 23.7881036 4.23121244 23.2526425 4.22176166 23.0273161 4.15137824 23.0273161 3.37168912 27.6350674"></polyline>
                        <polyline id="Fill-32" fill="#FFFFFF" points="36.5660518 26.5922487 36.3735544 27.6350674 35.1946943 27.6350674 35.2038964 27.4425699 35.2086218 27.2734508 35.2086218 27.1466114 35.2180725 27.0901554 35.1568912 27.1605389 35.0865078 27.231171 35.0019482 27.296829 34.9079378 27.3627358 34.8094508 27.4236684 34.6965389 27.4801244 34.5791503 27.5365803 34.4617617 27.5833368 34.3349223 27.6208912 34.2036062 27.6584456 34.0717927 27.6820725 33.9404767 27.7007254 33.8041865 27.7101762 33.6726218 27.7149016 33.5457824 27.7007254 33.418943 27.6820725 33.2498238 27.6397927 33.0996062 27.5927876 32.9680415 27.5318549 32.8459275 27.4612228 32.742715 27.386114 32.6534301 27.3015544 32.5783212 27.2122694 32.5124145 27.1185078 32.4562073 27.019772 32.4139275 26.9163109 32.3763731 26.8130984 32.3527461 26.709886 32.3340933 26.6016995 32.3199171 26.4937617 32.3104663 26.3903005 32.3104663 26.2870881 32.3199171 26.1037927 32.3480207 25.9299482 32.3903005 25.7655544 32.4514819 25.605886 32.5218653 25.4556684 32.6111503 25.3193782 32.7096373 25.1878135 32.8178238 25.0704249 32.9399378 24.962487 33.0667772 24.8637513 33.2028187 24.774715 33.3485596 24.6993575 33.4940518 24.6336995 33.6492435 24.5819689 33.8041865 24.5396891 33.9638549 24.5115855 33.9733057 24.5115855 33.9966839 24.5068601 34.029513 24.5021347 34.0765181 24.4974093 34.1376995 24.4879585 34.2036062 24.4834819 34.2739896 24.4740311 34.3490984 24.4645803 34.4289326 24.4551295 34.5134922 24.4456788 34.5933264 24.4409534 34.6731606 24.4317513 34.7482694 24.4270259 34.8141762 24.4223005 34.8798342 24.4175751 35.044228 24.4175751 35.1568912 24.4223005 35.2650777 24.4270259 35.3682902 24.4270259 35.4575751 24.4317513 35.5326839 24.4364767 35.5752124 24.4409534 35.5938653 24.4409534 35.6030674 24.4081244 35.6172435 24.3235648 35.6314197 24.2250777 35.6406218 24.1357927 35.6219689 24.0325803 35.5844145 23.9385699 35.5232332 23.8540104 35.4528497 23.7836269 35.3682902 23.7224456 35.2698031 23.6801658 35.166342 23.6520622 35.0536788 23.6426114 34.922114 23.637886 34.7810984 23.6331606 34.6356062 23.6331606 34.4851399 23.637886 34.3301969 23.6473368 34.1799793 23.6612642 34.029513 23.6754404 33.8840207 23.694342 33.7430052 23.7129948 33.6069637 23.7363731 33.4848497 23.76 33.3721865 23.7836269 33.2687254 23.8117306 33.1841658 23.8398342 33.1185078 23.8726632 33.0667772 23.9010155 33.3955648 22.7689119 33.4987772 22.7266321 33.6069637 22.6890777 33.7149016 22.6562487 33.8275648 22.6326218 33.9452021 22.6092435 34.0625907 22.5905907 34.1847047 22.5716891 34.311544 22.5622383 34.4431088 22.5527876 34.5791503 22.5480622 34.7154404 22.5433368 35.1568912 22.5433368 35.3165596 22.5480622 35.476228 22.5527876 35.6077927 22.5622383 35.7488083 22.5858653 35.8943005 22.6186943 36.0447668 22.6609741 36.1902591 22.7171813 36.336 22.7830881 36.4767668 22.8629223 36.6083316 22.9522073 36.7257202 23.0554197 36.833658 23.1680829 36.9276684 23.2949223 36.9983005 23.4359378 37.0497824 23.5861554 37.0828601 23.7458238 37.0828601 23.9243938 37.0592332 24.1124145 36.5660518 26.5922487"></polyline>
                        <polyline id="Fill-36" fill="#FFFFFF" points="33.4142176 27.7101762 33.4142176 27.7101762 33.5457824 27.7290777 33.6726218 27.7432539 33.8041865 27.7385285 33.9404767 27.7290777 34.0765181 27.7101762 34.2080829 27.6867979 34.3396477 27.6489948 34.4712124 27.6116891 34.588601 27.5646839 34.710715 27.508228 34.8233782 27.4520207 34.922114 27.386114 35.0208497 27.320456 35.1051606 27.2545492 35.1805181 27.1794404 35.2414508 27.109057 35.1946943 27.0715026 35.133513 27.141886 35.0676062 27.207544 34.9832953 27.2734508 34.8940104 27.3391088 34.7952746 27.3955648 34.5696995 27.508228 34.4523109 27.5552332 34.3301969 27.5927876 34.1986321 27.630342 34.0670674 27.6539689 33.9404767 27.6726218 33.8041865 27.6820725 33.6726218 27.6867979 33.5457824 27.6726218 33.4236684 27.6539689 33.4142176 27.7101762"></polyline>
                        <polyline id="Fill-37" fill="#FFFFFF" points="32.2776373 26.2870881 32.2776373 26.2870881 32.2823627 26.3903005 32.2918135 26.4937617 32.3057409 26.6064249 32.3246425 26.7143627 32.3480207 26.8178238 32.3855751 26.9257617 32.4278549 27.0339482 32.4890363 27.1324352 32.5546943 27.231171 32.6298031 27.320456 32.7238135 27.4097409 32.832 27.4848497 32.954114 27.5599585 33.0901554 27.6208912 33.2453472 27.6678964 33.4142176 27.7101762 33.4236684 27.6539689 33.2545492 27.6116891 33.109057 27.5646839 32.9822176 27.5035026 32.8601036 27.4378446 32.7613679 27.3627358 32.6768083 27.2829016 32.6016995 27.1936166 32.5360415 27.1043316 32.4843109 27.0055959 32.4420311 26.9071088 32.4044767 26.8083731 32.3810984 26.7051606 32.3621969 26.5969741 32.3480207 26.4937617 32.3388187 26.3903005 32.3432953 26.2870881 32.2776373 26.2870881"></polyline>
                        <polyline id="Fill-38" fill="#FFFFFF" points="33.9638549 24.4834819 33.9638549 24.4834819 33.7994611 24.5115855 33.6397927 24.5538653 33.4848497 24.6053472 33.3343834 24.6712539 33.1888912 24.7463627 33.0478756 24.8403731 32.9210363 24.9391088 32.7989223 25.051772 32.6862591 25.1691606 32.5875233 25.3007254 32.4937617 25.4414922 32.4231295 25.5964352 32.3621969 25.7563523 32.3199171 25.9254715 32.2918135 26.1037927 32.2776373 26.2870881 32.3432953 26.2870881 32.3480207 26.1037927 32.3763731 25.9346736 32.4186528 25.7750052 32.4795855 25.6153368 32.5499689 25.4695959 32.6345285 25.3382798 32.7332642 25.206715 32.8364767 25.0893264 32.9588394 24.9858653 33.0854301 24.8873782 33.2169948 24.8028187 33.3627358 24.7274611 33.5035026 24.6618031 33.6586943 24.6100725 33.8089119 24.5677927 33.9638549 24.5396891 33.9638549 24.4834819"></polyline>
                        <polyline id="Fill-42" fill="#FFFFFF" points="35.0536788 23.670715 35.0536788 23.6754404 35.1616166 23.6801658 35.2603523 23.7082694 35.354114 23.7505492 35.4341969 23.8070052 35.4998549 23.8726632 35.5563109 23.9524974 35.5938653 24.037057 35.6125181 24.1357927 35.6689741 24.1357927 35.6500725 24.0278549 35.6125181 23.9243938 35.5468601 23.8351088 35.4717513 23.76 35.3824663 23.694342 35.2790052 23.6520622 35.1710674 23.6237098 35.0536788 23.6097824 35.0536788 23.670715"></polyline>
                        <polyline id="Fill-46" fill="#FFFFFF" points="37.0873368 24.1168912 37.0873368 24.1168912 37.1109637 23.9243938 37.1109637 23.7458238 37.0781347 23.5814301 37.0264041 23.426487 36.9512953 23.2809948 36.857285 23.1494301 36.7446218 23.0320415 36.6272332 22.9285803 36.490943 22.8392953 36.3499275 22.7549845 36.1997098 22.6890777 36.0539689 22.6326218 35.8990259 22.5905907 35.7535337 22.557513 35.6077927 22.5341347 35.476228 22.5246839 35.476228 22.5811399 35.6077927 22.5905907 35.7440829 22.6139689 35.8895751 22.6467979 36.0353161 22.6890777 36.181057 22.7455337 36.3218238 22.8111917 36.4628394 22.8863005 36.5896788 22.9755855 36.7070674 23.0790466 36.8102798 23.1869845 36.9042902 23.3090984 36.9699482 23.4453886 37.0216788 23.5908808 37.0545078 23.7458238 37.0545078 23.9243938 37.0311295 24.1076891 37.0873368 24.1168912"></polyline>
                        <polyline id="Fill-47" fill="#FFFFFF" points="36.5941554 26.5969741 36.5941554 26.5969741 37.0873368 24.1168912 37.0311295 24.1076891 36.5379482 26.5875233 36.5941554 26.5969741"></polyline>
                        <polyline id="Fill-48" fill="#F2AD3D" points="35.4294715 25.3663834 35.4200207 25.3382798 35.4011192 25.3146528 35.3682902 25.3007254 35.321285 25.2865492 35.2698031 25.2818238 35.2086218 25.2770984 35.1382383 25.2770984 35.0676062 25.2818238 34.9927461 25.2912746 34.9173886 25.3007254 34.8422798 25.3099275 34.7716477 25.3193782 34.7012642 25.3335544 34.6403316 25.3430052 34.5791503 25.3569326 34.5321451 25.3663834 34.4993161 25.3711088 34.4617617 25.385285 34.4150052 25.3992124 34.3630259 25.418114 34.3020933 25.4462176 34.2456373 25.4743212 34.1799793 25.507399 34.0578653 25.5919585 33.9966839 25.6434404 33.9452021 25.695171 33.8934715 25.7563523 33.8511917 25.8220104 33.8183627 25.8923938 33.7900104 25.9677513 33.7760829 26.0473368 33.7713575 26.2072539 33.7947358 26.3340933 33.8322902 26.4278549 33.8887461 26.498487 33.9591295 26.5454922 34.0389637 26.5735959 34.1187979 26.5875233 34.1986321 26.5922487 34.3396477 26.5875233 34.4712124 26.5735959 34.5933264 26.5499689 34.7012642 26.5171399 34.8047254 26.4795855 34.8940104 26.4373057 34.9785699 26.3903005 35.0536788 26.3340933 35.1193368 26.2823627 35.1757927 26.2211813 35.2272746 26.1649741 35.2698031 26.1037927 35.3026321 26.0473368 35.3260104 25.9911295 35.3449119 25.9346736 35.3588394 25.8831917 35.3777409 25.7516269 35.4011192 25.6153368 35.4200207 25.483772 35.4294715 25.3663834"></polyline>
                        <polyline id="Fill-49" fill="#FFFFFF" points="45.1053264 26.9916684 45.1147772 26.8834819 45.1523316 26.7566425 45.2182383 26.6439793 45.2980725 26.5454922 45.3965596 26.4654093 45.5092228 26.4092021 45.6315855 26.3716477 45.7629016 26.3574715 45.8944663 26.3716477 46.0165803 26.4092021 46.1292435 26.4654093 46.2279793 26.5454922 46.3078135 26.6439793 46.3737202 26.7566425 46.4112746 26.8834819 46.4204767 26.9916684 46.2797098 26.9916684 46.2749845 26.9071088 46.2468808 26.8036477 46.1998756 26.709886 46.1386943 26.6298031 46.0635855 26.5641451 45.9743005 26.5171399 45.8710881 26.4843109 45.7629016 26.4748601 45.6549637 26.4843109 45.5515026 26.5171399 45.4624663 26.5641451 45.3871088 26.6298031 45.3261762 26.709886 45.279171 26.8036477 45.2510674 26.9071088 45.2416166 26.9916684 45.1053264 26.9916684"></polyline>
                        <polyline id="Fill-51" fill="#FFFFFF" points="45.1053264 26.9916684 45.100601 27.019772 45.1147772 27.1560622 45.1523316 27.2829016 45.2182383 27.3955648 45.2980725 27.4895751 45.3965596 27.5694093 45.5092228 27.630342 45.6315855 27.6678964 45.7629016 27.6820725 45.8944663 27.6678964 46.0165803 27.630342 46.1292435 27.5694093 46.2279793 27.4895751 46.3078135 27.3955648 46.3737202 27.2829016 46.4112746 27.1560622 46.4252021 27.019772 46.4204767 26.9916684 46.2797098 26.9916684 46.2844352 27.019772 46.2749845 27.1324352 46.2468808 27.2358964 46.1998756 27.3251813 46.1386943 27.4047668 46.0635855 27.4706736 45.9743005 27.5224041 45.8710881 27.5552332 45.7629016 27.5646839 45.6549637 27.5552332 45.5515026 27.5224041 45.4624663 27.4706736 45.3871088 27.4047668 45.3261762 27.3251813 45.279171 27.2358964 45.2510674 27.1324352 45.2416166 27.019772 45.2416166 26.9916684 45.1053264 26.9916684"></polyline>
                        <path d="M45.100601,27.019772 L45.100601,27.019772 L45.1147772,26.8834819 L45.1523316,26.7566425 L45.2182383,26.6439793 L45.2980725,26.5454922 L45.3965596,26.4654093 L45.5092228,26.4092021 L45.6315855,26.3716477 L45.7629016,26.3574715 L45.8944663,26.3716477 L46.0165803,26.4092021 L46.1292435,26.4654093 L46.2279793,26.5454922 L46.3078135,26.6439793 L46.3737202,26.7566425 L46.4112746,26.8834819 L46.4252021,27.019772 L46.4112746,27.1560622 L46.3737202,27.2829016 L46.3078135,27.3955648 L46.2279793,27.4895751 L46.1292435,27.5694093 L46.0165803,27.630342 L45.8944663,27.6678964 L45.7629016,27.6820725 L45.6315855,27.6678964 L45.5092228,27.630342 L45.3965596,27.5694093 L45.2980725,27.4895751 L45.2182383,27.3955648 L45.1523316,27.2829016 L45.1147772,27.1560622 L45.100601,27.019772 M45.645513,27.2781762 L45.5281244,27.2781762 L45.5281244,26.709886 L45.7865285,26.709886 L45.8427358,26.7143627 L45.8944663,26.7238135 L45.9320207,26.7379896 L45.9648497,26.7566425 L45.9884767,26.7849948 L46.0071295,26.8130984 L46.0165803,26.8459275 L46.0213057,26.8787565 L46.0165803,26.9210363 L46.0071295,26.954114 L45.9932021,26.9822176 L45.9743005,27.0055959 L45.9509223,27.0244974 L45.9225699,27.0339482 L45.8897409,27.0431503 L45.8569119,27.0431503 L45.9979275,27.2781762 L45.9039171,27.2781762 L45.7629016,27.0431503 L45.645513,27.0431503 L45.645513,27.2781762 M45.7629016,26.9963938 L45.7629016,26.9963938 L45.8051813,26.986943 L45.8380104,26.9822176 L45.8663627,26.9727668 L45.8897409,26.9635648 L45.9086425,26.9493886 L45.9180933,26.9352124 L45.9272953,26.9118342 L45.9272953,26.8787565 L45.9225699,26.8553782 L45.9133679,26.8367254 L45.8991917,26.8272746 L45.8850155,26.8178238 L45.8616373,26.8130984 L45.8380104,26.8083731 L45.645513,26.8083731 L45.645513,26.9963938 L45.7629016,26.9963938 M45.7629016,27.5646839 L45.7629016,27.5646839 L45.8710881,27.5552332 L45.9743005,27.5224041 L46.0635855,27.4706736 L46.1386943,27.4047668 L46.1998756,27.3251813 L46.2468808,27.2358964 L46.2749845,27.1324352 L46.2844352,27.019772 L46.2749845,26.9071088 L46.2468808,26.8036477 L46.1998756,26.709886 L46.1386943,26.6298031 L46.0635855,26.5641451 L45.9743005,26.5171399 L45.8710881,26.4843109 L45.7629016,26.4748601 L45.6549637,26.4843109 L45.5515026,26.5171399 L45.4624663,26.5641451 L45.3871088,26.6298031 L45.3261762,26.709886 L45.279171,26.8036477 L45.2510674,26.9071088 L45.2416166,27.019772 L45.2510674,27.1324352 L45.279171,27.2358964 L45.3261762,27.3251813 L45.3871088,27.4047668 L45.4624663,27.4706736 L45.5515026,27.5224041 L45.6549637,27.5552332 L45.7629016,27.5646839" id="Stroke-53" stroke="#FFFFFF" stroke-width="0.216"></path>
                        <polyline id="Fill-54" fill="#FFFFFF" points="36.9184663 27.6350674 38.2428187 27.6350674 38.7173472 24.962487 38.736 24.8590259 38.792456 24.6523523 38.8300104 24.5491399 38.8770155 24.4456788 38.9334715 24.3471917 38.9944041 24.2531813 39.0697617 24.1638964 39.1540725 24.0840622 39.2480829 24.0089534 39.3562694 23.9385699 39.4783834 23.882114 39.6144249 23.8351088 39.7648912 23.7975544 39.929285 23.7694508 40.1123316 23.76 40.2297202 23.76 40.4411192 22.5527876 40.3095544 22.5622383 40.182715 22.5764145 40.0653264 22.5997927 39.9526632 22.6326218 39.8494508 22.6701762 39.750715 22.7171813 39.6567047 22.7689119 39.5674197 22.8253679 39.4831088 22.8910259 39.4030259 22.9569326 39.2528083 23.1071503 39.1824249 23.1869845 39.1120415 23.2762694 39.0414093 23.360829 38.9757513 23.4545907 39.1167668 22.6045181 37.7966425 22.6045181 36.9184663 27.6350674"></polyline>
                        <polyline id="Stroke-55" stroke="#FFFFFF" stroke-width="0.216" points="36.9184663 27.6350674 38.2428187 27.6350674 38.7173472 24.962487 38.736 24.8590259 38.792456 24.6523523 38.8300104 24.5491399 38.8770155 24.4456788 38.9334715 24.3471917 38.9944041 24.2531813 39.0697617 24.1638964 39.1540725 24.0840622 39.2480829 24.0089534 39.3562694 23.9385699 39.4783834 23.882114 39.6144249 23.8351088 39.7648912 23.7975544 39.929285 23.7694508 40.1123316 23.76 40.2297202 23.76 40.4411192 22.5527876 40.3095544 22.5622383 40.182715 22.5764145 40.0653264 22.5997927 39.9526632 22.6326218 39.8494508 22.6701762 39.750715 22.7171813 39.6567047 22.7689119 39.5674197 22.8253679 39.4831088 22.8910259 39.4030259 22.9569326 39.2528083 23.1071503 39.1824249 23.1869845 39.1120415 23.2762694 39.0414093 23.360829 38.9757513 23.4545907 39.1167668 22.6045181 37.7966425 22.6045181 36.9184663 27.6350674"></polyline>
                        <polyline id="Fill-56" fill="#FFFFFF" points="24.4804974 27.6350674 25.8284767 27.6350674 26.2793782 24.962487 26.2982798 24.8590259 26.321658 24.7605389 26.345285 24.6618031 26.378114 24.5677927 26.4156684 24.4740311 26.4626736 24.3847461 26.5191295 24.3001865 26.5847876 24.2203523 26.6598964 24.1497202 26.744456 24.0793368 26.8479171 24.0231295 26.9605803 23.971399 27.0918964 23.9291192 27.2376373 23.8915648 27.3973057 23.8679378 27.580601 23.8540104 27.5945285 23.8540104 27.6134301 23.8587358 27.6368083 23.8632124 27.6604352 23.8632124 27.6838135 23.8679378 27.702715 23.8726632 27.7166425 23.8773886 27.7213679 23.8773886 27.7260933 23.8587358 27.7402694 23.8022798 27.7589223 23.7177202 27.7825492 23.6145078 27.8153782 23.4923938 27.8482073 23.360829 27.890487 23.2292642 27.9327668 23.0976995 27.9703212 23.0084145 28.0643316 22.8300933 28.1113368 22.7502591 28.1536166 22.6796269 28.1864456 22.6234197 28.2098238 22.5905907 28.2192746 22.5764145 28.2145492 22.5764145 28.1958964 22.5716891 28.1722694 22.5669637 28.1394404 22.5622383 28.1066114 22.5622383 28.069057 22.557513 28.036228 22.5527876 28.003399 22.5527876 27.857658 22.5622383 27.7260933 22.5764145 27.6039793 22.5997927 27.4913161 22.6281451 27.3831295 22.6656995 27.2846425 22.712456 27.1953575 22.7594611 27.1107979 22.8159171 27.0309637 22.8768497 26.9558549 22.9474819 26.8854715 23.0178653 26.8148394 23.0976995 26.744456 23.1775337 26.6787979 23.2668187 26.5377824 23.4545907 26.7069016 22.6045181 25.3589223 22.6045181 24.4804974 27.6350674"></polyline>
                        <polyline id="Stroke-57" stroke="#FFFFFF" stroke-width="0.216" points="24.4804974 27.6350674 25.8284767 27.6350674 26.2793782 24.962487 26.2982798 24.8590259 26.321658 24.7605389 26.345285 24.6618031 26.378114 24.5677927 26.4156684 24.4740311 26.4626736 24.3847461 26.5191295 24.3001865 26.5847876 24.2203523 26.6598964 24.1497202 26.744456 24.0793368 26.8479171 24.0231295 26.9605803 23.971399 27.0918964 23.9291192 27.2376373 23.8915648 27.3973057 23.8679378 27.580601 23.8540104 27.5945285 23.8540104 27.6134301 23.8587358 27.6368083 23.8632124 27.6604352 23.8632124 27.6838135 23.8679378 27.702715 23.8726632 27.7166425 23.8773886 27.7213679 23.8773886 27.7260933 23.8587358 27.7402694 23.8022798 27.7589223 23.7177202 27.7825492 23.6145078 27.8153782 23.4923938 27.8482073 23.360829 27.890487 23.2292642 27.9327668 23.0976995 27.9703212 23.0084145 28.0643316 22.8300933 28.1113368 22.7502591 28.1536166 22.6796269 28.1864456 22.6234197 28.2098238 22.5905907 28.2192746 22.5764145 28.2145492 22.5764145 28.1958964 22.5716891 28.1722694 22.5669637 28.1394404 22.5622383 28.1066114 22.5622383 28.069057 22.557513 28.036228 22.5527876 28.003399 22.5527876 27.857658 22.5622383 27.7260933 22.5764145 27.6039793 22.5997927 27.4913161 22.6281451 27.3831295 22.6656995 27.2846425 22.712456 27.1953575 22.7594611 27.1107979 22.8159171 27.0309637 22.8768497 26.9558549 22.9474819 26.8854715 23.0178653 26.8148394 23.0976995 26.744456 23.1775337 26.6787979 23.2668187 26.5377824 23.4545907 26.7069016 22.6045181 25.3589223 22.6045181 24.4804974 27.6350674"></polyline>
                        <polyline id="Fill-58" fill="#F2AD3D" points="45.1147772 32.5763316 45.1147772 32.5576788 45.1523316 32.4355648 45.2182383 32.3276269 45.2980725 32.2336166 45.3965596 32.1582591 45.5092228 32.1020518 45.6315855 32.0692228 45.7629016 32.0550466 45.8944663 32.0692228 46.0165803 32.1020518 46.1292435 32.1582591 46.2279793 32.2336166 46.3078135 32.3276269 46.3737202 32.4355648 46.4112746 32.5576788 46.4112746 32.5763316 46.2749845 32.5763316 46.2468808 32.4778446 46.1998756 32.3885596 46.1386943 32.3087254 46.0635855 32.2430674 45.9743005 32.1913368 45.8710881 32.1582591 45.7629016 32.149057 45.6549637 32.1582591 45.5515026 32.1913368 45.4624663 32.2430674 45.3871088 32.3087254 45.3261762 32.3885596 45.279171 32.4778446 45.2510674 32.5763316 45.1147772 32.5763316"></polyline>
                        <polyline id="Fill-63" fill="#F2AD3D" points="45.100601 32.6797927 45.100601 32.6939689 45.1147772 32.8300104 45.1523316 32.9568497 45.2182383 33.0697617 45.2980725 33.1682487 45.3965596 33.2480829 45.5092228 33.3045389 45.6315855 33.3420933 45.7629016 33.3562694 45.8944663 33.3420933 46.0165803 33.3045389 46.1292435 33.2480829 46.2279793 33.1682487 46.3078135 33.0697617 46.3737202 32.9568497 46.4112746 32.8300104 46.4252021 32.6939689 46.4252021 32.6797927 46.2844352 32.6797927 46.2844352 32.6939689 46.2749845 32.8066321 46.2468808 32.9098446 46.1998756 32.9991295 46.1386943 33.0789637 46.0635855 33.1448705 45.9743005 33.1963523 45.8710881 33.2291813 45.7629016 33.2386321 45.6549637 33.2291813 45.5515026 33.1963523 45.4624663 33.1448705 45.3871088 33.0789637 45.3261762 32.9991295 45.279171 32.9098446 45.2510674 32.8066321 45.2416166 32.6939689 45.2416166 32.6797927 45.100601 32.6797927"></polyline>
                    </g>
                </g>
            </g>
        </g>
    </g>
</svg>