<?xml version="1.0" encoding="UTF-8"?>
<svg width="48px" height="48px" viewBox="0 0 48 48" version="1.1" xmlns="http://www.w3.org/2000/svg" xmlns:xlink="http://www.w3.org/1999/xlink">
    <!-- Generator: Sketch 43.1 (39012) - http://www.bohemiancoding.com/sketch -->
    <title>stopwatch</title>
    <desc>Created with Sketch.</desc>
    <defs>
        <polygon id="path-1" points="0 47.94 48 47.94 48 0 0 0"></polygon>
    </defs>
    <g id="Page-2" stroke="none" stroke-width="1" fill="none" fill-rule="evenodd">
        <g id="GIRO-Complete" transform="translate(-1166.000000, -609.000000)">
            <g id="stopwatch" transform="translate(1166.000000, 609.000000)">
                <g id="Group-3">
                    <mask id="mask-2" fill="white">
                        <use xlink:href="#path-1"></use>
                    </mask>
                    <g id="Clip-2"></g>
                    <path d="M24,0 C23.559,0 23.199,0.359 23.199,0.801 L23.199,11.434 C23.199,11.875 23.559,12.234 24,12.234 C24.441,12.234 24.801,11.875 24.801,11.434 L24.801,1.613 C36.781,2.035 46.398,11.918 46.398,24 C46.398,36.352 36.352,46.398 24,46.398 C11.648,46.398 1.602,36.352 1.602,24 C1.602,18.031 3.922,12.418 8.133,8.188 C8.445,7.875 8.445,7.371 8.133,7.059 C7.816,6.746 7.312,6.746 7,7.059 C2.484,11.59 0,17.605 0,24 C0,37.234 10.766,48 24,48 C37.234,48 48,37.234 48,24 C48,10.766 37.234,0 24,0 Z" id="Fill-1" fill="#E0D43B" mask="url(#mask-2)"></path>
                </g>
                <path d="M22.844,26.824 C23.336,27.5 24.094,27.926 24.926,27.992 C25,27.996 25.074,28 25.148,28 C25.902,28 26.629,27.703 27.164,27.164 C27.754,26.574 28.055,25.762 27.992,24.926 C27.926,24.094 27.5,23.336 26.824,22.844 L16.469,15.352 C16.152,15.125 15.711,15.16 15.434,15.434 C15.156,15.715 15.121,16.152 15.352,16.469 L22.844,26.824 Z M25.883,24.137 C26.18,24.355 26.367,24.688 26.395,25.055 C26.426,25.418 26.293,25.773 26.035,26.035 C25.773,26.293 25.41,26.426 25.051,26.398 C24.688,26.367 24.352,26.18 24.137,25.887 L19.566,19.57 L25.883,24.137 Z" id="Fill-4" fill="#E0D43B"></path>
            </g>
        </g>
    </g>
</svg>