<?xml version="1.0" encoding="UTF-8"?>
<svg width="85px" height="85px" viewBox="0 0 85 85" version="1.1" xmlns="http://www.w3.org/2000/svg" xmlns:xlink="http://www.w3.org/1999/xlink">
    <!-- Generator: Sketch 39 (31667) - http://www.bohemiancoding.com/sketch -->
    <title>checkmark circle@2x</title>
    <desc>Created with Sketch.</desc>
    <defs></defs>
    <g id="Page-1" stroke="none" stroke-width="1" fill="none" fill-rule="evenodd">
        <g id="Письмо-ушло" transform="translate(-678.000000, -349.000000)" fill="#50D166">
            <g id="checkmark-circle" transform="translate(678.000000, 349.000000)">
                <g id="Page-1">
                    <g>
                        <g id="Icon-Set">
                            <path d="M58.5092187,24.0921875 C57.236875,23.3484375 55.6139062,23.8 54.8807812,25.0484375 L37.8940625,54.4796875 L28.39,45.7140625 C27.3859375,44.6515625 25.7045312,44.5984375 24.6340625,45.6078125 C23.5635937,46.590625 23.5078125,48.290625 24.511875,49.353125 L36.65625,60.5625 C37.6576562,61.625 39.3390625,61.678125 40.4095312,60.66875 C40.7335937,60.3765625 59.4814062,27.7046875 59.4814062,27.7046875 C60.2145312,26.45625 59.7789062,24.809375 58.5092187,24.0921875 L58.5092187,24.0921875 Z M42.5,79.6875 C21.961875,79.6875 5.3125,63.0328125 5.3125,42.5 C5.3125,21.9671875 21.961875,5.3125 42.5,5.3125 C63.038125,5.3125 79.6875,21.9671875 79.6875,42.5 C79.6875,63.0328125 63.038125,79.6875 42.5,79.6875 L42.5,79.6875 Z M42.5,0 C19.029375,0 0,19.01875 0,42.5 C0,65.98125 19.029375,85 42.5,85 C65.970625,85 85,65.98125 85,42.5 C85,19.01875 65.970625,0 42.5,0 L42.5,0 Z" id="checkmark-circle"></path>
                        </g>
                    </g>
                </g>
            </g>
        </g>
    </g>
</svg>