<?xml version="1.0" encoding="UTF-8"?>
<svg width="50px" height="50px" viewBox="0 0 50 50" version="1.1" xmlns="http://www.w3.org/2000/svg" xmlns:xlink="http://www.w3.org/1999/xlink">
    <!-- Generator: Sketch 43.1 (39012) - http://www.bohemiancoding.com/sketch -->
    <title>Error</title>
    <desc>Created with Sketch.</desc>
    <defs></defs>
    <g id="Page-1" stroke="none" stroke-width="1" fill="none" fill-rule="evenodd">
        <g id="TopUp-by-Card-Decline" transform="translate(-1165.000000, -506.000000)" fill="#FE3824">
            <path d="M1190,556 C1176.19288,556 1165,544.807119 1165,531 C1165,517.192881 1176.19288,506 1190,506 C1203.80712,506 1215,517.192881 1215,531 C1215,544.807119 1203.80712,556 1190,556 Z M1190,553.727273 C1202.55193,553.727273 1212.72727,543.551926 1212.72727,531 C1212.72727,518.448074 1202.55193,508.272727 1190,508.272727 C1177.44807,508.272727 1167.27273,518.448074 1167.27273,531 C1167.27273,543.551926 1177.44807,553.727273 1190,553.727273 Z M1190,529.392939 L1198.0353,521.357635 L1199.64237,522.964696 L1191.60706,531 L1199.64237,539.035304 L1198.0353,540.642365 L1190,532.607061 L1181.9647,540.642365 L1180.35763,539.035304 L1188.39294,531 L1180.35763,522.964696 L1181.9647,521.357635 L1190,529.392939 Z" id="Error"></path>
        </g>
    </g>
</svg>