<?xml version="1.0" encoding="UTF-8"?>
<svg width="48px" height="48px" viewBox="0 0 48 48" version="1.1" xmlns="http://www.w3.org/2000/svg" xmlns:xlink="http://www.w3.org/1999/xlink">
    <!-- Generator: Sketch 43.1 (39012) - http://www.bohemiancoding.com/sketch -->
    <title>Visa</title>
    <desc>Created with Sketch.</desc>
    <defs></defs>
    <g id="Page-1" stroke="none" stroke-width="1" fill="none" fill-rule="evenodd">
        <g id="TopUp-by-Card-Passive" transform="translate(-1249.000000, -322.000000)">
            <g id="TopUp-Right" transform="translate(939.000000, 122.000000)">
                <g id="Card-Picture" transform="translate(74.000000, 193.000000)">
                    <g id="Visa" transform="translate(236.000000, 7.000000)">
                        <polygon id="Fill-1" fill="#FFFFFF" points="0.153896907 47.8461031 47.8461031 47.8461031 47.8461031 0.153896907 0.153896907 0.153896907"></polygon>
                        <polyline id="Fill-2" fill="#004F8B" points="17.5769072 30.4745567 19.7782268 17.5583505 23.2988041 17.5583505 21.096 30.4745567 17.5769072 30.4745567"></polyline>
                        <path d="M33.8647423,17.8762887 C33.1672577,17.6145155 32.0743918,17.3339381 30.7093608,17.3339381 C27.2308454,17.3339381 24.7801237,19.0856907 24.7593402,21.5962887 C24.7397938,23.4522062 26.508866,24.4876701 27.8442062,25.1054845 C29.214433,25.7383918 29.6753814,26.1421856 29.668701,26.7075464 C29.6600412,27.5732784 28.5743505,27.9689072 27.5623918,27.9689072 C26.1533196,27.9689072 25.404866,27.7731959 24.2486598,27.2909691 L23.7948866,27.0856082 L23.3007835,29.9769897 C24.1232165,30.3374845 25.6438763,30.6499794 27.222433,30.6660619 C30.9233814,30.6660619 33.3256082,28.9343505 33.3530722,26.2532784 C33.366433,24.7840825 32.4282062,23.665732 30.3973608,22.7440825 C29.1666804,22.1465567 28.4130309,21.7477113 28.4209485,21.1427629 C28.4209485,20.6058557 29.0588041,20.0318351 30.4371959,20.0318351 C31.5884536,20.0140206 32.422268,20.2649072 33.072,20.5266804 L33.3874639,20.6756289 L33.8647423,17.8762887" id="Fill-3" fill="#004F8B"></path>
                        <path d="M42.8924536,17.5707216 L40.1720412,17.5707216 C39.3293196,17.5707216 38.6986392,17.8005773 38.3284948,18.6418144 L33.0999588,30.4787629 L36.7969485,30.4787629 C36.7969485,30.4787629 37.4014021,28.8870928 37.5382268,28.537732 C37.942268,28.537732 41.5333608,28.5431753 42.0467629,28.5431753 C42.1521649,28.9952165 42.475299,30.4787629 42.475299,30.4787629 L45.7420206,30.4787629 L42.8924536,17.5707216 M38.5514227,25.8957526 C38.8423918,25.1515052 39.9540619,22.2851134 39.9540619,22.2851134 C39.9330309,22.3195052 40.2430515,21.5374021 40.420701,21.0524536 L40.6587216,22.1661031 C40.6587216,22.1661031 41.3329485,25.2492371 41.473732,25.8957526 L38.5514227,25.8957526" id="Fill-4" fill="#004F8B"></path>
                        <path d="M14.6241649,17.5677526 L11.1773196,26.3757526 L10.8101443,24.5856495 C10.1685773,22.5221443 8.16940206,20.2866804 5.93418557,19.1675876 L9.08585567,30.4634227 L12.8108041,30.4592165 L18.3533196,17.5677526 L14.6241649,17.5677526" id="Fill-5" fill="#004F8B"></path>
                        <path d="M7.97987629,17.5598351 L2.30301031,17.5598351 L2.25797938,17.8285361 C6.67472165,18.8976495 9.59703093,21.4812371 10.8101443,24.5856495 L9.57575258,18.6502268 C9.36247423,17.8322474 8.74441237,17.5882887 7.97987629,17.5598351" id="Fill-6" fill="#EE9F2D"></path>
                    </g>
                </g>
            </g>
        </g>
    </g>
</svg>